<svg width="23" height="22" viewBox="0 0 23 22" fill="none" xmlns="http://www.w3.org/2000/svg">
<path d="M13.8155 18.9536C14.1482 18.7615 14.3901 18.4435 14.4879 18.0695C14.5857 17.6955 14.5314 17.2963 14.337 16.9595L13.6039 15.6897C13.4095 15.353 13.0908 15.1063 12.7181 15.0041C12.3453 14.9018 11.9489 14.9522 11.6162 15.1443C9.10699 16.593 7.64082 14.0535 6.90773 12.7838C6.17464 11.5141 4.70847 8.97456 7.21767 7.52587C7.55041 7.33377 7.79229 7.01575 7.89009 6.64178C7.98789 6.26782 7.93361 5.86854 7.73918 5.53178L7.00609 4.26204C6.81167 3.92528 6.49302 3.67863 6.12026 3.57635C5.74749 3.47406 5.35115 3.52453 5.0184 3.71664C1.8819 5.5275 0.733088 7.88376 4.39853 14.2325C8.06397 20.5812 10.679 20.7644 13.8155 18.9536Z" stroke="#1F2B6C" stroke-width="1.5" stroke-linecap="round" stroke-linejoin="round"/>
<path d="M20.4925 13.7102C21.159 11.1565 20.7876 8.43049 19.4601 6.13119C18.1326 3.83188 15.9575 2.14732 13.4127 1.4476M16.6513 12.6562C16.8499 11.8977 16.8975 11.1058 16.7915 10.3257C16.6855 9.54555 16.428 8.79245 16.0337 8.10944C15.6394 7.42642 15.1159 6.82686 14.4933 6.34501C13.8706 5.86316 13.161 5.50846 12.4049 5.30118M12.8308 11.5945C12.964 11.0835 12.8896 10.5381 12.624 10.078C12.3584 9.61794 11.9232 9.28084 11.4141 9.14072" stroke="#159EEC" stroke-width="1.5" stroke-linecap="round" stroke-linejoin="round"/>
</svg>
