<svg xmlns="http://www.w3.org/2000/svg" xmlns:xlink="http://www.w3.org/1999/xlink" width="500" zoomAndPan="magnify" viewBox="0 0 375 374.999991" height="500" preserveAspectRatio="xMidYMid meet" version="1.0"><defs><g/><clipPath id="17808f37d1"><path d="M 58.023438 179 L 60 179 L 60 186 L 58.023438 186 Z M 58.023438 179 " clip-rule="nonzero"/></clipPath><clipPath id="0c8717071c"><path d="M 58.023438 173 L 59 173 L 59 180 L 58.023438 180 Z M 58.023438 173 " clip-rule="nonzero"/></clipPath><clipPath id="f564091d93"><path d="M 58.023438 169 L 61 169 L 61 176 L 58.023438 176 Z M 58.023438 169 " clip-rule="nonzero"/></clipPath><clipPath id="d26131a297"><path d="M 99 226 L 103 226 L 103 227.472656 L 99 227.472656 Z M 99 226 " clip-rule="nonzero"/></clipPath><clipPath id="7d44de1420"><path d="M 102 226 L 106 226 L 106 227.472656 L 102 227.472656 Z M 102 226 " clip-rule="nonzero"/></clipPath><clipPath id="c1230226b5"><path d="M 107 227 L 110 227 L 110 227.472656 L 107 227.472656 Z M 107 227 " clip-rule="nonzero"/></clipPath><clipPath id="fb8301d7fb"><path d="M 83 137.472656 L 86 137.472656 L 86 140 L 83 140 Z M 83 137.472656 " clip-rule="nonzero"/></clipPath><clipPath id="5d182a7b19"><path d="M 83 137.472656 L 86 137.472656 L 86 139 L 83 139 Z M 83 137.472656 " clip-rule="nonzero"/></clipPath><clipPath id="6c5edfe0ab"><path d="M 110 226 L 112 226 L 112 227.472656 L 110 227.472656 Z M 110 226 " clip-rule="nonzero"/></clipPath><clipPath id="b8eb391f83"><path d="M 129 201 L 130.023438 201 L 130.023438 203 L 129 203 Z M 129 201 " clip-rule="nonzero"/></clipPath></defs><rect x="-37.5" width="450" fill="#ffffff" y="-37.499999" height="449.999989" fill-opacity="1"/><rect x="-37.5" width="450" fill="#ffffff" y="-37.499999" height="449.999989" fill-opacity="1"/><rect x="-37.5" width="450" fill="#ffffff" y="-37.499999" height="449.999989" fill-opacity="1"/><path fill="#1863c2" d="M 73.824219 214.515625 C 72.992188 213.660156 71.539062 212.25 70.941406 211.871094 C 70.910156 211.855469 70.863281 211.84375 70.824219 211.84375 C 70.835938 212.246094 74.613281 215.910156 75.035156 215.925781 C 75.023438 215.777344 74.371094 215.078125 73.824219 214.515625 " fill-opacity="1" fill-rule="nonzero"/><path fill="#1863c2" d="M 78.730469 218.066406 C 77.859375 217.316406 76.273438 216.097656 75.492188 215.792969 C 75.4375 215.777344 75.347656 215.753906 75.320312 215.78125 C 75.167969 215.917969 76.160156 216.855469 77.183594 217.644531 C 78.492188 218.652344 79.6875 219.386719 79.902344 219.316406 C 79.972656 219.15625 79.199219 218.464844 78.730469 218.066406 " fill-opacity="1" fill-rule="nonzero"/><path fill="#1863c2" d="M 62.402344 198.96875 C 62.382812 198.949219 62.347656 198.929688 62.324219 198.929688 C 62.316406 199.457031 64.839844 204.292969 65.136719 204.3125 C 65.140625 204.101562 64.632812 203.042969 64.332031 202.429688 C 63.808594 201.363281 62.820312 199.476562 62.402344 198.96875 " fill-opacity="1" fill-rule="nonzero"/><path fill="#1863c2" d="M 65.542969 204.152344 C 65.492188 204.128906 65.425781 204.097656 65.394531 204.132812 C 65.066406 204.464844 68.027344 208.851562 68.730469 209.070312 C 69 209.15625 68.707031 208.425781 68.011719 207.300781 C 67.363281 206.246094 66.167969 204.574219 65.542969 204.152344 " fill-opacity="1" fill-rule="nonzero"/><path fill="#1863c2" d="M 72.441406 211.648438 C 71.722656 210.6875 70.339844 209.183594 69.511719 208.84375 C 69.441406 208.824219 69.347656 208.800781 69.292969 208.839844 C 68.722656 209.234375 72.0625 213.148438 73.09375 213.292969 C 73.476562 213.347656 73.207031 212.667969 72.441406 211.648438 " fill-opacity="1" fill-rule="nonzero"/><path fill="#1863c2" d="M 60.175781 193.332031 C 60.210938 193.433594 60.261719 193.585938 60.324219 193.773438 C 60.273438 193.625 60.222656 193.472656 60.175781 193.328125 L 60.175781 193.332031 " fill-opacity="1" fill-rule="nonzero"/><path fill="#1863c2" d="M 63.851562 200.753906 C 64.25 200.976562 64.179688 200.085938 63.691406 198.675781 C 63.269531 197.457031 62.390625 195.539062 61.761719 195.09375 C 61.726562 195.074219 61.671875 195.050781 61.632812 195.058594 C 60.976562 195.183594 62.949219 200.238281 63.851562 200.753906 " fill-opacity="1" fill-rule="nonzero"/><path fill="#1863c2" d="M 67.539062 205.714844 C 68.082031 205.894531 68.042969 205.039062 67.449219 203.726562 C 66.9375 202.589844 65.820312 200.824219 64.957031 200.449219 C 64.878906 200.433594 64.777344 200.40625 64.703125 200.457031 C 63.945312 200.933594 66.304688 205.304688 67.539062 205.714844 " fill-opacity="1" fill-rule="nonzero"/><path fill="#1863c2" d="M 71.871094 210.128906 C 72.660156 210.390625 72.722656 209.558594 72.007812 208.273438 C 71.332031 207.0625 69.996094 205.589844 69.023438 205.328125 C 68.925781 205.316406 68.796875 205.300781 68.699219 205.355469 C 67.765625 205.847656 70.257812 209.597656 71.871094 210.128906 " fill-opacity="1" fill-rule="nonzero"/><path fill="#1863c2" d="M 59.539062 189.34375 C 59.519531 189.324219 59.488281 189.304688 59.460938 189.296875 C 59.066406 189.542969 60.621094 195.214844 61.125 195.363281 C 61.324219 195.238281 60.957031 193.644531 60.839844 193.15625 C 60.550781 191.964844 59.945312 189.875 59.539062 189.34375 " fill-opacity="1" fill-rule="nonzero"/><path fill="#1863c2" d="M 63.515625 196.761719 C 64.152344 197.113281 64.386719 196.09375 64.03125 194.484375 C 63.75 193.203125 62.972656 191.226562 62.117188 190.839844 C 62.058594 190.828125 61.980469 190.8125 61.921875 190.824219 C 60.824219 191.066406 62.148438 196.003906 63.515625 196.761719 " fill-opacity="1" fill-rule="nonzero"/><path fill="#1863c2" d="M 67.109375 201.84375 C 68.023438 202.308594 68.382812 201.304688 67.878906 199.695312 C 67.5 198.476562 66.464844 196.621094 65.351562 196.304688 C 65.277344 196.296875 65.175781 196.285156 65.105469 196.304688 C 63.800781 196.613281 65.378906 200.964844 67.109375 201.84375 " fill-opacity="1" fill-rule="nonzero"/><path fill="#1863c2" d="M 71.464844 206.433594 C 72.667969 206.984375 73.171875 206.023438 72.523438 204.414062 C 72.0625 203.273438 70.828125 201.570312 69.523438 201.34375 C 69.402344 201.339844 69.238281 201.335938 69.09375 201.40625 C 67.875 201.984375 69.558594 205.554688 71.464844 206.433594 " fill-opacity="1" fill-rule="nonzero"/><path fill="#1863c2" d="M 60.710938 191.179688 C 61.164062 191.582031 61.371094 190.578125 61.171875 188.933594 C 61.015625 187.652344 60.53125 185.648438 59.929688 185.199219 C 59.890625 185.183594 59.832031 185.160156 59.789062 185.167969 C 58.976562 185.3125 59.742188 190.3125 60.710938 191.179688 " fill-opacity="1" fill-rule="nonzero"/><path fill="#1863c2" d="M 65.367188 189.960938 C 65.226562 188.667969 64.546875 186.710938 63.472656 186.394531 C 63.394531 186.386719 63.289062 186.378906 63.214844 186.398438 C 61.890625 186.707031 62.445312 191.078125 63.960938 192.242188 C 64.890625 192.957031 65.574219 191.847656 65.367188 189.960938 " fill-opacity="1" fill-rule="nonzero"/><path fill="#1863c2" d="M 69.230469 195.1875 C 68.972656 193.902344 68.027344 191.980469 66.726562 191.742188 C 66.632812 191.742188 66.503906 191.742188 66.414062 191.765625 C 64.90625 192.152344 65.703125 196.175781 67.535156 197.429688 C 68.785156 198.285156 69.625 197.175781 69.230469 195.1875 " fill-opacity="1" fill-rule="nonzero"/><path fill="#1863c2" d="M 73.863281 200.050781 C 73.519531 198.824219 72.367188 197.023438 70.890625 196.871094 C 70.785156 196.875 70.644531 196.882812 70.542969 196.910156 C 68.886719 197.382812 69.972656 201.199219 72.070312 202.28125 C 73.496094 203.015625 74.382812 201.910156 73.863281 200.050781 " fill-opacity="1" fill-rule="nonzero"/><path fill="#1863c2" d="M 61.339844 186.820312 C 61.980469 187.371094 62.523438 186.308594 62.496094 184.546875 C 62.476562 183.265625 62.089844 181.289062 61.285156 180.910156 C 61.226562 180.898438 61.144531 180.882812 61.085938 180.894531 C 59.941406 181.132812 60.140625 185.785156 61.339844 186.820312 " fill-opacity="1" fill-rule="nonzero"/><path fill="#1863c2" d="M 67.585938 185.238281 C 67.558594 183.941406 66.96875 182.011719 65.730469 181.78125 C 65.683594 181.78125 65.621094 181.773438 65.574219 181.777344 C 63.933594 181.894531 63.75 185.839844 65.3125 187.40625 C 66.4375 188.535156 67.628906 187.398438 67.585938 185.238281 " fill-opacity="1" fill-rule="nonzero"/><path fill="#1863c2" d="M 71.359375 190.3125 C 71.21875 189.011719 70.375 187.109375 68.9375 186.957031 C 68.882812 186.957031 68.808594 186.957031 68.757812 186.960938 C 66.902344 187.183594 67.050781 191.160156 68.96875 192.632812 C 70.339844 193.6875 71.589844 192.472656 71.359375 190.3125 " fill-opacity="1" fill-rule="nonzero"/><path fill="#1863c2" d="M 75.929688 195.199219 C 75.691406 193.902344 74.628906 192.039062 73.011719 191.960938 C 72.953125 191.964844 72.871094 191.96875 72.8125 191.976562 C 70.90625 192.28125 71.183594 195.972656 73.226562 197.464844 C 74.878906 198.671875 76.34375 197.445312 75.929688 195.199219 " fill-opacity="1" fill-rule="nonzero"/><path fill="#1863c2" d="M 62.765625 182.171875 C 63.582031 183.117188 64.566406 182.023438 64.71875 180.007812 C 64.816406 178.734375 64.507812 176.800781 63.515625 176.496094 C 63.476562 176.492188 63.429688 176.484375 63.390625 176.484375 C 62.011719 176.507812 61.546875 180.761719 62.765625 182.171875 " fill-opacity="1" fill-rule="nonzero"/><path fill="#1863c2" d="M 67.558594 182.601562 C 68.71875 183.917969 70.28125 182.730469 70.390625 180.449219 C 70.453125 179.160156 69.941406 177.273438 68.601562 177.121094 C 66.597656 177.207031 66.179688 181.035156 67.558594 182.601562 " fill-opacity="1" fill-rule="nonzero"/><path fill="#1863c2" d="M 74.085938 185.351562 C 74.035156 184.046875 73.273438 182.175781 71.730469 182.09375 C 69.476562 182.289062 69.382812 186.167969 71.097656 187.671875 C 72.523438 188.921875 74.167969 187.640625 74.085938 185.351562 " fill-opacity="1" fill-rule="nonzero"/><path fill="#1863c2" d="M 75.238281 192.394531 C 76.945312 193.867188 78.84375 192.558594 78.566406 190.097656 C 78.421875 188.789062 77.441406 186.941406 75.722656 186.9375 C 73.386719 187.226562 73.402344 190.808594 75.238281 192.394531 " fill-opacity="1" fill-rule="nonzero"/><path fill="#1863c2" d="M 67.601562 175.433594 C 67.785156 174.171875 67.542969 172.289062 66.425781 172.070312 C 64.652344 172.046875 63.921875 176.148438 65.066406 177.574219 C 65.964844 178.691406 67.289062 177.570312 67.601562 175.433594 " fill-opacity="1" fill-rule="nonzero"/><path fill="#1863c2" d="M 82.082031 214.191406 C 83.480469 214.542969 84.035156 213.660156 83.269531 212.296875 C 82.726562 211.332031 81.273438 209.949219 79.734375 209.894531 C 79.523438 209.910156 79.308594 209.925781 79.097656 210.074219 C 77.910156 210.902344 79.890625 213.632812 82.082031 214.191406 " fill-opacity="1" fill-rule="nonzero"/><path fill="#1863c2" d="M 84.636719 208.308594 C 84.203125 207.242188 82.820312 205.746094 81.109375 205.757812 C 80.953125 205.777344 80.734375 205.800781 80.53125 205.898438 C 78.96875 206.636719 80.199219 209.480469 82.464844 210.371094 C 84.210938 211.058594 85.328125 209.996094 84.636719 208.308594 " fill-opacity="1" fill-rule="nonzero"/><path fill="#1863c2" d="M 86.707031 203.796875 C 86.363281 202.636719 85.046875 201.035156 83.1875 201.113281 C 83.117188 201.125 83.027344 201.132812 82.960938 201.148438 C 80.914062 201.582031 81.292969 204.621094 83.550781 205.929688 C 85.554688 207.089844 87.324219 205.894531 86.707031 203.796875 " fill-opacity="1" fill-rule="nonzero"/><path fill="#1863c2" d="M 85.84375 195.984375 C 85.773438 196 85.675781 196.011719 85.601562 196.03125 C 83.394531 196.5625 83.519531 199.859375 85.800781 201.214844 C 87.804688 202.40625 89.828125 201.023438 89.347656 198.789062 C 89.082031 197.539062 87.816406 195.84375 85.84375 195.984375 " fill-opacity="1" fill-rule="nonzero"/><path fill="#1863c2" d="M 82.417969 217.402344 C 83.378906 217.53125 83.496094 216.804688 82.6875 215.75 C 82.027344 214.890625 80.492188 213.625 79.152344 213.507812 C 78.972656 213.511719 78.789062 213.515625 78.632812 213.636719 C 77.6875 214.371094 80.480469 217.152344 82.417969 217.402344 " fill-opacity="1" fill-rule="nonzero"/><path fill="#1863c2" d="M 83.464844 220.039062 C 84 220.027344 83.792969 219.476562 82.953125 218.667969 C 82.214844 217.964844 80.609375 216.777344 79.425781 216.597656 C 79.277344 216.589844 79.125 216.585938 79.03125 216.675781 C 78.410156 217.273438 82.097656 220.074219 83.464844 220.039062 " fill-opacity="1" fill-rule="nonzero"/><path fill="#1863c2" d="M 76.996094 206.644531 C 78.800781 207.53125 79.980469 206.359375 79.285156 204.363281 C 78.851562 203.113281 77.449219 201.320312 75.691406 201.25 C 75.566406 201.257812 75.398438 201.273438 75.28125 201.3125 C 73.425781 201.867188 74.582031 205.453125 76.996094 206.644531 " fill-opacity="1" fill-rule="nonzero"/><path fill="#1863c2" d="M 76.671875 210.707031 C 78.09375 211.191406 78.683594 210.171875 77.90625 208.570312 C 77.351562 207.421875 75.867188 205.742188 74.292969 205.59375 C 74.152344 205.597656 73.953125 205.605469 73.78125 205.6875 C 72.285156 206.382812 74.3125 209.902344 76.671875 210.707031 " fill-opacity="1" fill-rule="nonzero"/><path fill="#1863c2" d="M 60.828125 179.089844 C 60.945312 177.71875 60.839844 175.582031 60.246094 175.125 C 60.203125 175.109375 60.136719 175.085938 60.089844 175.09375 C 59.082031 175.269531 58.796875 180.621094 59.746094 181.527344 C 60.195312 181.957031 60.679688 180.863281 60.828125 179.089844 " fill-opacity="1" fill-rule="nonzero"/><g clip-path="url(#17808f37d1)"><path fill="#1863c2" d="M 58.832031 179.226562 C 58.808594 179.207031 58.769531 179.175781 58.738281 179.179688 C 58.132812 179.246094 58.40625 185.066406 59.046875 185.738281 C 59.316406 186.019531 59.492188 184.984375 59.460938 183.324219 C 59.433594 181.941406 59.21875 179.757812 58.832031 179.226562 " fill-opacity="1" fill-rule="nonzero"/></g><path fill="#1863c2" d="M 81.160156 199.648438 C 80.855469 198.40625 79.636719 196.660156 77.875 196.664062 C 77.746094 196.679688 77.574219 196.703125 77.453125 196.742188 C 75.59375 197.355469 76.15625 200.652344 78.335938 201.925781 C 80.144531 202.988281 81.675781 201.75 81.160156 199.648438 " fill-opacity="1" fill-rule="nonzero"/><path fill="#1863c2" d="M 80.355469 196.875 C 82.253906 198.230469 84.226562 196.851562 83.816406 194.464844 C 83.589844 193.15625 82.4375 191.351562 80.570312 191.417969 C 80.503906 191.429688 80.410156 191.441406 80.339844 191.457031 C 78.222656 191.917969 78.234375 195.363281 80.355469 196.875 " fill-opacity="1" fill-rule="nonzero"/><path fill="#1863c2" d="M 76.941406 214 C 77.851562 214.195312 77.953125 213.417969 77.175781 212.234375 C 76.542969 211.277344 75.089844 209.835938 73.839844 209.636719 C 73.671875 209.628906 73.5 209.625 73.359375 209.738281 C 72.507812 210.445312 75.1875 213.628906 76.941406 214 " fill-opacity="1" fill-rule="nonzero"/><path fill="#1863c2" d="M 78.042969 216.917969 C 78.519531 216.9375 78.289062 216.3125 77.480469 215.398438 C 76.71875 214.539062 75.191406 213.210938 74.175781 212.953125 C 74.042969 212.9375 73.917969 212.921875 73.84375 213.011719 C 73.363281 213.621094 76.855469 216.871094 78.042969 216.917969 " fill-opacity="1" fill-rule="nonzero"/><g clip-path="url(#0c8717071c)"><path fill="#1863c2" d="M 58.703125 173.730469 C 58.695312 173.71875 58.6875 173.703125 58.683594 173.691406 C 58.671875 173.6875 58.65625 173.6875 58.644531 173.6875 C 58.328125 174.21875 58.023438 179.074219 58.269531 179.660156 C 58.28125 179.660156 58.296875 179.660156 58.308594 179.660156 C 58.449219 179.40625 58.5625 178.199219 58.621094 177.5 C 58.714844 176.324219 58.824219 174.265625 58.703125 173.730469 " fill-opacity="1" fill-rule="nonzero"/></g><g clip-path="url(#f564091d93)"><path fill="#1863c2" d="M 59.976562 173.476562 C 60.210938 172.242188 60.40625 170.300781 60.109375 169.847656 C 60.085938 169.832031 60.046875 169.804688 60.015625 169.808594 C 59.367188 169.882812 58.53125 175.074219 59.078125 175.65625 C 59.308594 175.902344 59.695312 174.96875 59.976562 173.476562 " fill-opacity="1" fill-rule="nonzero"/></g><path fill="#1863c2" d="M 62.179688 169.375 C 62.527344 168.160156 62.808594 166.28125 62.347656 165.902344 C 62.328125 165.894531 62.300781 165.878906 62.28125 165.875 C 61.386719 165.730469 60.058594 170.382812 60.683594 171.46875 C 61.007812 172.035156 61.695312 171.074219 62.179688 169.375 " fill-opacity="1" fill-rule="nonzero"/><path fill="#1863c2" d="M 63.105469 167.269531 C 63.492188 167.976562 64.445312 166.992188 65.105469 165.210938 C 65.546875 164.027344 65.894531 162.226562 65.300781 161.917969 C 64.1875 161.71875 62.421875 166.023438 63.105469 167.269531 " fill-opacity="1" fill-rule="nonzero"/><path fill="#1863c2" d="M 62.945312 174.621094 C 63.167969 173.371094 63.160156 171.453125 62.441406 171.101562 C 62.414062 171.097656 62.375 171.085938 62.347656 171.085938 C 61.1875 171.023438 60.332031 175.480469 61.261719 176.765625 C 61.796875 177.507812 62.617188 176.464844 62.945312 174.621094 " fill-opacity="1" fill-rule="nonzero"/><path fill="#1863c2" d="M 63.652344 172.304688 C 64.269531 173.210938 65.40625 172.144531 65.90625 170.191406 C 66.21875 168.964844 66.273438 167.109375 65.40625 166.835938 C 63.859375 166.714844 62.78125 171.015625 63.652344 172.304688 " fill-opacity="1" fill-rule="nonzero"/><path fill="#1863c2" d="M 73.867188 175.257812 C 73.996094 173.984375 73.546875 172.160156 72.140625 172.082031 C 70.167969 172.265625 69.402344 175.792969 70.578125 177.363281 C 71.714844 178.882812 73.621094 177.664062 73.867188 175.257812 " fill-opacity="1" fill-rule="nonzero"/><path fill="#1863c2" d="M 77.476562 179.945312 C 77.496094 178.652344 76.796875 176.828125 75.1875 176.820312 C 72.929688 177.105469 72.464844 180.660156 73.996094 182.234375 C 75.421875 183.699219 77.441406 182.375 77.476562 179.945312 " fill-opacity="1" fill-rule="nonzero"/><path fill="#1863c2" d="M 78.234375 186.972656 C 79.910156 188.371094 82.019531 186.949219 81.875 184.519531 C 81.796875 183.210938 80.882812 181.398438 79.09375 181.460938 C 76.632812 181.847656 76.417969 185.453125 78.234375 186.972656 " fill-opacity="1" fill-rule="nonzero"/><path fill="#1863c2" d="M 83.75 185.980469 C 81.296875 186.433594 81.125 189.800781 82.9375 191.363281 C 84.808594 192.976562 87.238281 191.511719 86.933594 188.949219 C 86.777344 187.632812 85.683594 185.84375 83.75 185.980469 " fill-opacity="1" fill-rule="nonzero"/><path fill="#1863c2" d="M 70.042969 167.304688 C 68.226562 167.394531 67.195312 171.132812 68.195312 172.589844 C 69.074219 173.875 70.703125 172.71875 71.152344 170.496094 C 71.40625 169.253906 71.226562 167.445312 70.042969 167.304688 " fill-opacity="1" fill-rule="nonzero"/><path fill="#1863c2" d="M 66.726562 167.761719 C 67.363281 168.816406 68.769531 167.742188 69.414062 165.703125 C 69.792969 164.507812 69.898438 162.734375 68.949219 162.539062 C 67.3125 162.53125 65.921875 166.421875 66.726562 167.761719 " fill-opacity="1" fill-rule="nonzero"/><path fill="#1863c2" d="M 71.46875 192.402344 L 71.449219 192.4375 L 71.453125 192.441406 Z M 71.46875 192.402344 " fill-opacity="1" fill-rule="nonzero"/><path fill="#1863c2" d="M 72.675781 197.335938 L 72.710938 197.367188 L 72.679688 197.335938 C 72.675781 197.335938 72.675781 197.335938 72.675781 197.335938 " fill-opacity="1" fill-rule="nonzero"/><path fill="#1863c2" d="M 87.953125 213.472656 C 89.757812 214.179688 91.003906 213.207031 90.296875 211.644531 C 89.878906 210.722656 88.539062 209.457031 86.871094 209.53125 C 86.699219 209.554688 86.480469 209.589844 86.277344 209.695312 C 84.882812 210.398438 85.886719 212.660156 87.953125 213.472656 " fill-opacity="1" fill-rule="nonzero"/><path fill="#1863c2" d="M 87.6875 217.113281 C 89.058594 217.378906 89.621094 216.554688 88.867188 215.386719 C 88.382812 214.628906 87.03125 213.441406 85.480469 213.457031 C 85.375 213.464844 85.0625 213.484375 84.820312 213.660156 C 83.726562 214.449219 85.601562 216.707031 87.6875 217.113281 " fill-opacity="1" fill-rule="nonzero"/><path fill="#1863c2" d="M 80.90625 174.707031 C 80.972656 173.492188 80.367188 171.804688 78.808594 171.851562 C 76.90625 172.050781 75.972656 175.125 77.316406 176.757812 C 78.597656 178.3125 80.777344 177.066406 80.90625 174.707031 " fill-opacity="1" fill-rule="nonzero"/><path fill="#1863c2" d="M 75.820312 167.371094 C 73.941406 167.617188 73.066406 170.808594 74.09375 172.226562 C 75.109375 173.621094 77.003906 172.527344 77.371094 170.332031 C 77.570312 169.121094 77.222656 167.402344 75.820312 167.371094 " fill-opacity="1" fill-rule="nonzero"/><path fill="#1863c2" d="M 59.503906 169.804688 C 59.714844 169.6875 60.09375 168.515625 60.296875 167.828125 C 60.378906 167.554688 61.085938 165.152344 60.980469 164.566406 C 60.972656 164.550781 60.957031 164.527344 60.9375 164.519531 C 60.925781 164.523438 60.914062 164.527344 60.902344 164.535156 C 60.417969 164.863281 59.136719 169.6875 59.503906 169.804688 " fill-opacity="1" fill-rule="nonzero"/><path fill="#1863c2" d="M 92.320312 207.289062 C 91.984375 206.34375 90.824219 204.988281 88.988281 205.132812 C 88.851562 205.15625 88.664062 205.191406 88.53125 205.238281 C 86.820312 205.847656 87.320312 208.332031 89.355469 209.320312 C 91.113281 210.175781 93.007812 209.234375 92.320312 207.289062 " fill-opacity="1" fill-rule="nonzero"/><path fill="#1863c2" d="M 84.910156 221.992188 C 85.164062 221.949219 84.59375 221.464844 83.976562 221.023438 C 83.273438 220.523438 81.703125 219.515625 80.773438 219.285156 C 80.664062 219.273438 80.566406 219.257812 80.542969 219.320312 C 80.371094 219.761719 84.207031 222.105469 84.910156 221.992188 " fill-opacity="1" fill-rule="nonzero"/><path fill="#1863c2" d="M 87.894531 220.03125 C 88.855469 220.097656 88.988281 219.5 88.203125 218.613281 C 87.691406 218.035156 86.335938 216.921875 84.886719 216.878906 C 84.691406 216.890625 84.507812 216.902344 84.355469 217.019531 C 83.472656 217.679688 86.082031 219.902344 87.894531 220.03125 " fill-opacity="1" fill-rule="nonzero"/><path fill="#1863c2" d="M 71.820312 167.65625 C 72.523438 168.691406 74.167969 167.898438 74.710938 165.808594 C 74.910156 165.042969 75.128906 163.03125 73.773438 162.933594 C 72.058594 163.097656 70.957031 166.378906 71.820312 167.65625 " fill-opacity="1" fill-rule="nonzero"/><path fill="#1863c2" d="M 62.5 164.027344 C 62.859375 163.136719 63.480469 161.34375 63.238281 160.921875 C 63.226562 160.914062 63.214844 160.898438 63.199219 160.894531 C 62.648438 160.707031 60.894531 165.101562 61.226562 165.847656 C 61.386719 166.210938 61.921875 165.445312 62.5 164.027344 " fill-opacity="1" fill-rule="nonzero"/><path fill="#1863c2" d="M 82.660156 176.335938 C 80.34375 176.761719 80.132812 179.882812 81.417969 181.222656 C 82.796875 182.664062 85.234375 181.652344 85.171875 179.09375 C 85.132812 177.414062 84.007812 176.175781 82.660156 176.335938 " fill-opacity="1" fill-rule="nonzero"/><path fill="#1863c2" d="M 92.230469 193.207031 C 92.027344 192.0625 91.019531 190.429688 89.054688 190.625 C 86.730469 190.992188 86.691406 194.214844 88.492188 195.554688 C 90.214844 196.835938 92.660156 195.691406 92.230469 193.207031 " fill-opacity="1" fill-rule="nonzero"/><path fill="#1863c2" d="M 91.429688 204.574219 C 93.332031 205.761719 95.429688 204.53125 94.941406 202.511719 C 94.597656 201.09375 93.074219 200.035156 91.675781 200.242188 C 91.601562 200.253906 91.507812 200.269531 91.4375 200.289062 C 89.511719 200.804688 89.507812 203.367188 91.429688 204.574219 " fill-opacity="1" fill-rule="nonzero"/><path fill="#1863c2" d="M 68.773438 158.105469 C 67.5625 158.03125 65.910156 161.640625 66.367188 162.699219 C 66.703125 163.464844 67.796875 162.613281 68.539062 161.007812 C 68.996094 160.023438 69.460938 158.367188 68.773438 158.105469 " fill-opacity="1" fill-rule="nonzero"/><path fill="#1863c2" d="M 88.816406 222.371094 C 89.289062 222.328125 89.128906 221.890625 88.429688 221.304688 C 87.476562 220.503906 85.941406 219.773438 85.144531 219.738281 C 84.996094 219.742188 84.859375 219.742188 84.769531 219.828125 C 84.171875 220.394531 87.5 222.484375 88.816406 222.371094 " fill-opacity="1" fill-rule="nonzero"/><path fill="#1863c2" d="M 72.710938 158.527344 C 71.351562 158.613281 69.824219 161.589844 70.441406 162.949219 C 70.933594 164.03125 72.417969 163.027344 73.089844 161.15625 C 73.453125 160.136719 73.578125 158.648438 72.710938 158.527344 " fill-opacity="1" fill-rule="nonzero"/><path fill="#1863c2" d="M 63.769531 161.890625 C 63.949219 162.367188 64.738281 161.523438 65.460938 160.082031 C 65.941406 159.121094 66.507812 157.566406 66.195312 157.273438 C 66.191406 157.273438 66.191406 157.269531 66.1875 157.269531 C 65.460938 156.988281 63.40625 160.917969 63.769531 161.890625 " fill-opacity="1" fill-rule="nonzero"/><path fill="#1863c2" d="M 87.261719 180.734375 C 85.179688 181.0625 84.582031 184.109375 86.308594 185.601562 C 88.003906 187.0625 90.300781 185.679688 90.089844 183.324219 C 89.988281 182.144531 89.039062 180.5625 87.261719 180.734375 " fill-opacity="1" fill-rule="nonzero"/><path fill="#1863c2" d="M 95.910156 214.675781 C 95.472656 213.621094 93.929688 212.765625 92.730469 212.910156 C 92.621094 212.929688 92.472656 212.957031 92.367188 212.992188 C 91.039062 213.46875 91.371094 215.261719 93.40625 216.128906 C 95.226562 216.898438 96.433594 215.9375 95.910156 214.675781 " fill-opacity="1" fill-rule="nonzero"/><path fill="#1863c2" d="M 94.449219 218.132812 C 93.996094 217.4375 92.648438 216.511719 91.300781 216.574219 C 91.054688 216.597656 90.855469 216.667969 90.707031 216.777344 C 89.753906 217.46875 91.214844 219.15625 93.109375 219.554688 C 94.566406 219.859375 95.03125 219.027344 94.449219 218.132812 " fill-opacity="1" fill-rule="nonzero"/><path fill="#1863c2" d="M 82.519531 166.921875 C 80.949219 167.128906 79.816406 169.800781 81.0625 171.332031 C 82.214844 172.746094 84.222656 171.636719 84.421875 169.476562 C 84.523438 168.355469 83.921875 166.84375 82.519531 166.921875 " fill-opacity="1" fill-rule="nonzero"/><path fill="#1863c2" d="M 81 165.234375 C 81.246094 163.828125 80.578125 162.625 79.597656 162.707031 C 77.953125 162.980469 76.917969 165.722656 77.945312 167.082031 C 78.925781 168.382812 80.683594 167.054688 81 165.234375 " fill-opacity="1" fill-rule="nonzero"/><path fill="#1863c2" d="M 63.789062 158.929688 C 63.992188 158.550781 65.003906 156.644531 64.96875 156.167969 C 64.964844 156.160156 64.960938 156.148438 64.953125 156.140625 C 64.632812 155.90625 62.503906 159.953125 62.671875 160.472656 C 62.738281 160.675781 63.167969 160.085938 63.789062 158.929688 " fill-opacity="1" fill-rule="nonzero"/><path fill="#1863c2" d="M 75.679688 162.6875 C 76.296875 163.769531 77.957031 162.945312 78.46875 160.90625 C 78.703125 159.976562 78.667969 158.589844 77.613281 158.570312 C 76.089844 158.777344 75.007812 161.519531 75.679688 162.6875 " fill-opacity="1" fill-rule="nonzero"/><path fill="#1863c2" d="M 86.316406 171.164062 C 84.476562 171.453125 83.742188 174.3125 85.15625 175.664062 C 86.527344 176.976562 88.65625 175.671875 88.605469 173.550781 C 88.582031 172.546875 87.941406 171.007812 86.316406 171.164062 " fill-opacity="1" fill-rule="nonzero"/><path fill="#1863c2" d="M 97.917969 210.464844 C 97.480469 209.335938 96.117188 208.5625 94.878906 208.746094 C 94.757812 208.769531 94.59375 208.804688 94.476562 208.847656 C 92.925781 209.40625 93.269531 211.425781 95.058594 212.28125 C 96.855469 213.136719 98.535156 212.066406 97.917969 210.464844 " fill-opacity="1" fill-rule="nonzero"/><path fill="#1863c2" d="M 93.734375 221.054688 C 92.96875 220.269531 91.601562 219.667969 90.683594 219.714844 C 90.53125 219.734375 90.277344 219.761719 90.132812 219.910156 C 89.519531 220.558594 91.796875 222.171875 93.382812 222.21875 C 94.261719 222.242188 94.410156 221.753906 93.734375 221.054688 " fill-opacity="1" fill-rule="nonzero"/><path fill="#1863c2" d="M 72.617188 154.308594 C 71.609375 154.214844 69.730469 157.21875 70.105469 158.324219 C 70.371094 159.101562 71.53125 158.46875 72.40625 156.734375 C 72.796875 155.964844 73.339844 154.46875 72.617188 154.308594 " fill-opacity="1" fill-rule="nonzero"/><path fill="#1863c2" d="M 90.273438 224.140625 C 90.496094 224.09375 90.160156 223.796875 89.375 223.34375 C 89.179688 223.234375 87.453125 222.253906 86.359375 222.097656 C 86.242188 222.089844 86.136719 222.085938 86.097656 222.140625 C 85.851562 222.511719 89.554688 224.289062 90.273438 224.140625 " fill-opacity="1" fill-rule="nonzero"/><path fill="#1863c2" d="M 100.578125 205.945312 C 100.359375 205.0625 99.382812 203.835938 97.582031 204.070312 C 97.582031 204.074219 97.582031 204.074219 97.582031 204.074219 C 97.582031 204.074219 97.578125 204.074219 97.578125 204.074219 C 97.300781 204.136719 96.726562 204.269531 96.339844 204.792969 C 95.414062 206.050781 96.667969 208.457031 99.089844 208.132812 C 99.089844 208.132812 99.089844 208.132812 99.09375 208.132812 C 100.953125 207.707031 100.621094 206.125 100.578125 205.945312 " fill-opacity="1" fill-rule="nonzero"/><path fill="#1863c2" d="M 97.910156 197.261719 C 97.734375 196.246094 96.734375 194.726562 94.796875 194.960938 C 92.542969 195.488281 92.554688 198.253906 94.3125 199.410156 C 96.117188 200.597656 98.269531 199.3125 97.910156 197.261719 " fill-opacity="1" fill-rule="nonzero"/><path fill="#1863c2" d="M 92.496094 185.089844 C 90.414062 185.476562 89.976562 188.472656 91.804688 189.804688 C 93.558594 191.082031 95.765625 189.644531 95.4375 187.4375 C 95.246094 186.144531 94.148438 184.882812 92.496094 185.089844 " fill-opacity="1" fill-rule="nonzero"/><path fill="#1863c2" d="M 61.566406 162.433594 C 61.871094 161.703125 62.585938 159.960938 62.675781 159.523438 C 62.679688 159.515625 62.679688 159.5 62.679688 159.488281 C 62.671875 159.488281 62.660156 159.488281 62.652344 159.488281 C 62.351562 159.859375 60.671875 163.84375 60.8125 164.089844 C 60.855469 164.027344 60.960938 163.882812 61.566406 162.433594 " fill-opacity="1" fill-rule="nonzero"/><path fill="#1863c2" d="M 85.894531 222.84375 C 83.910156 221.8125 83.34375 221.5625 83.050781 221.457031 C 83.046875 221.457031 83.046875 221.457031 83.046875 221.457031 C 83.019531 221.445312 82.980469 221.4375 82.949219 221.433594 C 82.949219 221.4375 82.945312 221.449219 82.945312 221.453125 C 83.359375 221.84375 86.824219 223.523438 87.234375 223.585938 C 87.21875 223.550781 87.207031 223.523438 85.894531 222.84375 " fill-opacity="1" fill-rule="nonzero"/><path fill="#1863c2" d="M 67.015625 157.816406 C 67.160156 158.332031 67.96875 157.824219 68.898438 156.269531 C 68.949219 156.179688 70.195312 154.070312 69.660156 153.738281 C 68.734375 153.59375 66.78125 156.988281 67.015625 157.816406 " fill-opacity="1" fill-rule="nonzero"/><path fill="#1863c2" d="M 94.097656 224.253906 C 94.097656 224.253906 94.101562 224.253906 94.101562 224.253906 C 94.132812 224.25 94.171875 224.25 94.207031 224.246094 C 94.648438 224.195312 94.527344 223.871094 93.898438 223.417969 C 93.003906 222.78125 91.664062 222.269531 90.910156 222.277344 C 90.777344 222.285156 90.636719 222.296875 90.550781 222.367188 C 90.066406 222.765625 92.511719 224.222656 94.097656 224.253906 " fill-opacity="1" fill-rule="nonzero"/><path fill="#1863c2" d="M 76.625 154.492188 C 76.472656 154.507812 76.246094 154.53125 75.859375 154.847656 C 74.472656 155.972656 73.695312 158.648438 75.003906 158.746094 C 75.003906 158.746094 75.007812 158.746094 75.007812 158.746094 C 76.089844 158.632812 76.796875 157.027344 76.871094 156.84375 C 77.351562 155.707031 77.367188 154.492188 76.625 154.492188 " fill-opacity="1" fill-rule="nonzero"/><path fill="#1863c2" d="M 67.929688 152.816406 C 67.582031 152.738281 64.992188 156.171875 65.339844 156.878906 C 65.339844 156.878906 65.34375 156.878906 65.34375 156.878906 C 65.640625 157.050781 66.6875 155.460938 66.804688 155.28125 C 67.179688 154.707031 68.113281 153.148438 67.960938 152.835938 C 67.949219 152.832031 67.9375 152.820312 67.929688 152.816406 " fill-opacity="1" fill-rule="nonzero"/><path fill="#1863c2" d="M 90.878906 175.359375 C 88.644531 175.886719 88.601562 178.6875 89.921875 179.808594 C 91.296875 180.972656 93.597656 179.921875 93.445312 177.6875 C 93.339844 176.175781 92.191406 175.132812 90.878906 175.359375 " fill-opacity="1" fill-rule="nonzero"/><path fill="#1863c2" d="M 96.070312 179.480469 C 94.214844 179.964844 93.679688 182.347656 95.128906 183.664062 C 96.800781 185.179688 98.957031 183.671875 98.789062 181.699219 C 98.695312 180.621094 97.699219 179.253906 96.070312 179.480469 " fill-opacity="1" fill-rule="nonzero"/><path fill="#1863c2" d="M 101.132812 191.535156 C 100.945312 190.128906 99.511719 189.039062 98.1875 189.300781 C 96.28125 189.804688 95.828125 192.289062 97.402344 193.589844 C 99.261719 195.125 101.40625 193.578125 101.132812 191.535156 " fill-opacity="1" fill-rule="nonzero"/><path fill="#1863c2" d="M 103.613281 200.808594 C 103.382812 199.589844 101.976562 198.671875 100.71875 198.921875 C 98.847656 199.410156 98.488281 201.625 100.097656 202.742188 C 101.9375 204.019531 103.945312 202.585938 103.613281 200.808594 " fill-opacity="1" fill-rule="nonzero"/><path fill="#1863c2" d="M 70.804688 153.847656 C 70.894531 154.511719 71.964844 153.644531 72.777344 152.472656 C 73.359375 151.632812 73.949219 150.382812 73.546875 150.21875 C 72.695312 150.191406 70.667969 152.871094 70.804688 153.847656 " fill-opacity="1" fill-rule="nonzero"/><path fill="#1863c2" d="M 101.269531 217.203125 C 100.925781 216.351562 99.558594 215.671875 98.507812 215.824219 C 98.410156 215.84375 98.28125 215.875 98.1875 215.90625 C 97.074219 216.3125 97.222656 217.695312 98.832031 218.394531 C 100.480469 219.113281 101.707031 218.285156 101.269531 217.203125 " fill-opacity="1" fill-rule="nonzero"/><path fill="#1863c2" d="M 88.449219 223.894531 C 88.421875 223.890625 88.378906 223.886719 88.351562 223.886719 C 88.347656 223.894531 88.34375 223.90625 88.339844 223.914062 C 88.691406 224.257812 91.75 225.332031 92.445312 225.4375 C 92.453125 225.429688 92.460938 225.421875 92.46875 225.417969 C 92.351562 225.34375 91.945312 225.167969 91.257812 224.894531 C 91.042969 224.808594 89.132812 224.050781 88.449219 223.894531 " fill-opacity="1" fill-rule="nonzero"/><path fill="#1863c2" d="M 74.207031 154.121094 C 74.4375 154.839844 75.566406 154.089844 76.359375 152.691406 C 76.792969 151.929688 77.25 150.683594 76.632812 150.574219 C 75.621094 150.648438 73.902344 153.164062 74.207031 154.121094 " fill-opacity="1" fill-rule="nonzero"/><path fill="#1863c2" d="M 95.636719 225.710938 C 95.804688 225.613281 95.078125 225.261719 94.851562 225.15625 C 93.976562 224.75 92.648438 224.296875 92.03125 224.269531 C 91.933594 224.273438 91.828125 224.273438 91.800781 224.324219 C 91.578125 224.6875 95.164062 225.980469 95.636719 225.710938 " fill-opacity="1" fill-rule="nonzero"/><path fill="#1863c2" d="M 86.175781 162.085938 C 84.625 162.433594 83.859375 164.8125 84.914062 166.003906 C 85.941406 167.164062 87.738281 166.089844 87.871094 164.234375 C 87.960938 162.96875 87.152344 161.945312 86.175781 162.085938 " fill-opacity="1" fill-rule="nonzero"/><path fill="#1863c2" d="M 83.3125 158.164062 C 81.929688 158.441406 81 160.707031 81.78125 161.898438 C 82.550781 163.070312 84.230469 162.101562 84.542969 160.300781 C 84.757812 159.085938 84.167969 158.066406 83.3125 158.164062 " fill-opacity="1" fill-rule="nonzero"/><path fill="#1863c2" d="M 98.378906 221.535156 C 99.738281 221.820312 100.277344 221.136719 99.765625 220.378906 C 99.273438 219.652344 97.972656 219.09375 97.035156 219.207031 C 96.859375 219.238281 96.691406 219.269531 96.519531 219.386719 C 95.691406 219.957031 96.773438 221.199219 98.378906 221.535156 " fill-opacity="1" fill-rule="nonzero"/><path fill="#1863c2" d="M 68.65625 153.152344 C 68.71875 153.511719 69.4375 152.917969 70.296875 151.804688 C 70.3125 151.785156 71.753906 149.902344 71.480469 149.601562 C 70.910156 149.445312 68.535156 152.429688 68.65625 153.152344 " fill-opacity="1" fill-rule="nonzero"/><path fill="#1863c2" d="M 98.671875 223.914062 C 99.4375 223.902344 99.578125 223.511719 99.007812 222.980469 C 98.554688 222.5625 97.480469 221.960938 96.378906 222.023438 C 96.246094 222.039062 96.003906 222.078125 95.878906 222.203125 C 95.332031 222.75 97.265625 223.929688 98.671875 223.914062 " fill-opacity="1" fill-rule="nonzero"/><path fill="#1863c2" d="M 81.398438 154.339844 C 80.199219 154.457031 79.039062 156.863281 79.671875 157.914062 C 80.195312 158.777344 81.644531 158.046875 82.113281 156.359375 C 82.339844 155.535156 82.339844 154.320312 81.398438 154.339844 " fill-opacity="1" fill-rule="nonzero"/><path fill="#1863c2" d="M 89.921875 166.066406 C 88.304688 166.359375 87.648438 168.828125 88.871094 170.011719 C 89.984375 171.089844 92.019531 170.144531 91.960938 168.125 C 91.9375 167.203125 91.371094 165.890625 89.921875 166.066406 " fill-opacity="1" fill-rule="nonzero"/><path fill="#1863c2" d="M 103.351562 213.308594 C 103.121094 212.660156 102.195312 211.710938 100.6875 211.917969 C 100.578125 211.9375 100.417969 211.972656 100.253906 212.042969 C 98.984375 212.578125 99.234375 214.179688 100.6875 214.851562 C 102.226562 215.558594 103.820312 214.636719 103.351562 213.308594 " fill-opacity="1" fill-rule="nonzero"/><path fill="#1863c2" d="M 65.988281 154.0625 C 66.597656 153.171875 67.347656 152.039062 67.449219 151.703125 C 67.445312 151.691406 67.441406 151.679688 67.4375 151.667969 C 67.078125 151.789062 64.917969 155.042969 65.003906 155.328125 C 65.046875 155.316406 65.152344 155.277344 65.988281 154.0625 " fill-opacity="1" fill-rule="nonzero"/><path fill="#1863c2" d="M 69.019531 150.828125 C 69.03125 150.808594 70.507812 149.03125 70.507812 148.699219 C 70.503906 148.691406 70.5 148.6875 70.492188 148.679688 C 70.074219 148.660156 67.558594 151.78125 67.769531 152.050781 C 67.957031 152.066406 68.632812 151.292969 69.019531 150.828125 " fill-opacity="1" fill-rule="nonzero"/><path fill="#1863c2" d="M 94.070312 225.714844 C 93.972656 225.707031 93.972656 225.707031 93.949219 225.734375 C 94.175781 225.957031 97.402344 226.753906 97.703125 226.660156 C 97.664062 226.640625 97.597656 226.601562 96.683594 226.347656 C 95.371094 225.984375 94.492188 225.769531 94.070312 225.714844 " fill-opacity="1" fill-rule="nonzero"/><path fill="#1863c2" d="M 101.726562 183.574219 C 99.957031 183.984375 99.5 186.375 100.964844 187.566406 C 102.535156 188.847656 104.6875 187.578125 104.402344 185.539062 C 104.265625 184.554688 103.34375 183.296875 101.726562 183.574219 " fill-opacity="1" fill-rule="nonzero"/><path fill="#1863c2" d="M 104.664062 210.871094 C 104.664062 210.871094 104.664062 210.871094 104.667969 210.871094 C 104.667969 210.867188 104.667969 210.867188 104.667969 210.867188 C 104.667969 210.867188 104.667969 210.867188 104.671875 210.867188 C 106.324219 210.453125 106.066406 209.121094 106.03125 208.972656 C 105.859375 208.234375 105.023438 207.230469 103.429688 207.480469 C 102.800781 207.613281 102.464844 207.945312 102.320312 208.132812 C 101.40625 209.308594 102.675781 211.175781 104.660156 210.871094 C 104.664062 210.871094 104.664062 210.871094 104.664062 210.871094 " fill-opacity="1" fill-rule="nonzero"/><path fill="#1863c2" d="M 80.488281 150.601562 C 79.515625 150.667969 78.179688 152.84375 78.503906 153.832031 C 78.773438 154.65625 80.011719 154.070312 80.683594 152.492188 C 80.992188 151.773438 81.210938 150.621094 80.488281 150.601562 " fill-opacity="1" fill-rule="nonzero"/><path fill="#1863c2" d="M 72.53125 149.542969 C 72.519531 149.957031 73.324219 149.394531 74.257812 148.339844 C 74.734375 147.800781 75.648438 146.621094 75.414062 146.449219 C 74.816406 146.386719 72.554688 148.816406 72.53125 149.542969 " fill-opacity="1" fill-rule="nonzero"/><path fill="#1863c2" d="M 99.464844 225.59375 C 99.746094 225.511719 99.578125 225.257812 99.039062 224.953125 C 98.585938 224.695312 97.484375 224.214844 96.558594 224.238281 C 96.558594 224.238281 96.558594 224.238281 96.554688 224.238281 C 96.445312 224.25 96.261719 224.265625 96.199219 224.359375 C 95.890625 224.828125 98.605469 225.855469 99.464844 225.59375 " fill-opacity="1" fill-rule="nonzero"/><path fill="#1863c2" d="M 94.429688 170.023438 C 94.425781 170.023438 94.425781 170.023438 94.425781 170.023438 C 94.421875 170.023438 94.421875 170.023438 94.421875 170.023438 C 92.441406 170.558594 92.457031 173.074219 93.660156 173.996094 C 95.023438 175.042969 96.890625 173.824219 96.730469 171.992188 C 96.652344 171.113281 95.960938 169.796875 94.429688 170.023438 " fill-opacity="1" fill-rule="nonzero"/><path fill="#1863c2" d="M 91.894531 225.339844 L 92.019531 225.378906 C 91.929688 225.347656 91.832031 225.320312 91.738281 225.292969 L 91.894531 225.339844 " fill-opacity="1" fill-rule="nonzero"/><path fill="#1863c2" d="M 106.839844 195.222656 C 106.609375 193.972656 105.371094 193.148438 104.140625 193.417969 C 102.148438 193.980469 102.0625 196.363281 103.558594 197.332031 C 105.160156 198.371094 107.1875 197.070312 106.839844 195.222656 " fill-opacity="1" fill-rule="nonzero"/><path fill="#1863c2" d="M 74.996094 150.007812 C 75.09375 150.503906 76.046875 149.855469 76.910156 148.703125 C 77.324219 148.152344 78.039062 146.988281 77.625 146.875 C 76.96875 146.816406 74.820312 149.152344 74.996094 150.007812 " fill-opacity="1" fill-rule="nonzero"/><path fill="#1863c2" d="M 109.140625 204.128906 C 109.03125 203.1875 107.964844 202.296875 106.609375 202.53125 C 105.042969 202.964844 104.59375 204.691406 105.796875 205.660156 C 107.320312 206.886719 109.320312 205.691406 109.140625 204.128906 " fill-opacity="1" fill-rule="nonzero"/><path fill="#1863c2" d="M 100.710938 226.738281 C 100.84375 226.667969 100.253906 226.453125 100.070312 226.390625 C 99.320312 226.128906 98.125 225.84375 97.613281 225.851562 C 97.539062 225.855469 97.414062 225.863281 97.414062 225.921875 C 97.410156 226.21875 100.339844 226.945312 100.710938 226.738281 " fill-opacity="1" fill-rule="nonzero"/><path fill="#1863c2" d="M 99.59375 173.910156 C 99.59375 173.910156 99.59375 173.914062 99.589844 173.914062 C 99.585938 173.914062 99.585938 173.914062 99.585938 173.914062 C 97.859375 174.414062 97.5 176.78125 98.992188 177.8125 C 100.558594 178.886719 102.269531 177.402344 102.023438 175.722656 C 101.890625 174.820312 100.976562 173.691406 99.59375 173.910156 " fill-opacity="1" fill-rule="nonzero"/><path fill="#1863c2" d="M 78.410156 150.023438 C 78.578125 150.59375 79.582031 149.925781 80.292969 148.765625 C 80.625 148.226562 81.132812 147.09375 80.59375 147.027344 C 79.707031 147.136719 78.179688 149.234375 78.410156 150.023438 " fill-opacity="1" fill-rule="nonzero"/><path fill="#1863c2" d="M 71.226562 148.769531 C 71.4375 148.859375 72.417969 147.871094 72.710938 147.570312 C 72.773438 147.507812 74.171875 146.058594 74.101562 145.808594 C 74.097656 145.804688 74.085938 145.796875 74.078125 145.796875 C 73.789062 145.746094 71.027344 148.273438 71.226562 148.769531 " fill-opacity="1" fill-rule="nonzero"/><path fill="#1863c2" d="M 106.203125 219.265625 C 105.972656 218.773438 105.140625 218.152344 103.996094 218.308594 C 103.832031 218.339844 103.671875 218.394531 103.550781 218.460938 C 102.695312 218.917969 103.070312 219.953125 104.238281 220.363281 C 105.484375 220.804688 106.621094 220.167969 106.203125 219.265625 " fill-opacity="1" fill-rule="nonzero"/><path fill="#1863c2" d="M 88.605469 160.730469 C 89.511719 161.714844 91.054688 160.699219 91.070312 159.113281 C 91.078125 158.347656 90.628906 157.320312 89.605469 157.4375 C 88.351562 157.671875 87.714844 159.765625 88.605469 160.730469 " fill-opacity="1" fill-rule="nonzero"/><path fill="#1863c2" d="M 103.414062 223.109375 C 104.480469 223.300781 105.121094 222.84375 104.6875 222.199219 C 104.304688 221.640625 103.273438 221.25 102.476562 221.367188 C 102.347656 221.390625 102.132812 221.433594 101.96875 221.5625 C 101.390625 222.023438 102.203125 222.890625 103.414062 223.109375 " fill-opacity="1" fill-rule="nonzero"/><path fill="#1863c2" d="M 86.796875 153.839844 C 85.535156 154.121094 84.9375 156.226562 85.640625 157.03125 C 86.289062 157.773438 87.648438 157.03125 87.847656 155.511719 C 87.964844 154.621094 87.597656 153.726562 86.796875 153.839844 " fill-opacity="1" fill-rule="nonzero"/><path fill="#1863c2" d="M 108.382812 215.707031 C 108.203125 215.183594 107.480469 214.476562 106.21875 214.679688 C 106.160156 214.695312 106.027344 214.730469 106.027344 214.730469 C 104.742188 215.121094 104.886719 216.425781 105.953125 216.980469 C 107.25 217.660156 108.773438 216.863281 108.382812 215.707031 " fill-opacity="1" fill-rule="nonzero"/><path fill="#1863c2" d="M 84.957031 150.324219 C 83.988281 150.445312 83.035156 152.425781 83.539062 153.265625 C 83.960938 153.964844 85.148438 153.359375 85.539062 151.980469 C 85.734375 151.292969 85.742188 150.28125 84.957031 150.324219 " fill-opacity="1" fill-rule="nonzero"/><path fill="#1863c2" d="M 93.300781 161.125 C 91.691406 161.546875 91.601562 163.6875 92.53125 164.492188 C 93.496094 165.324219 95.152344 164.492188 95.074219 162.839844 C 95.023438 161.710938 94.226562 160.941406 93.300781 161.125 " fill-opacity="1" fill-rule="nonzero"/><path fill="#1863c2" d="M 103.59375 225.140625 C 104.199219 225.105469 104.320312 224.820312 103.882812 224.457031 C 103.429688 224.070312 102.507812 223.730469 101.757812 223.820312 C 101.640625 223.839844 101.449219 223.871094 101.339844 223.972656 C 100.894531 224.394531 102.472656 225.214844 103.59375 225.140625 " fill-opacity="1" fill-rule="nonzero"/><path fill="#1863c2" d="M 104.21875 226.484375 C 104.4375 226.421875 104.320312 226.261719 103.917969 226.074219 C 103.488281 225.875 102.589844 225.59375 101.875 225.640625 C 101.765625 225.652344 101.628906 225.679688 101.582031 225.746094 C 101.371094 226.070312 103.566406 226.683594 104.21875 226.484375 " fill-opacity="1" fill-rule="nonzero"/><path fill="#1863c2" d="M 79.324219 146.304688 C 79.402344 146.65625 80.191406 146.132812 80.949219 145.226562 C 81.546875 144.515625 81.984375 143.734375 81.6875 143.707031 C 80.984375 143.769531 79.199219 145.738281 79.324219 146.304688 " fill-opacity="1" fill-rule="nonzero"/><g clip-path="url(#d26131a297)"><path fill="#1863c2" d="M 99.609375 226.882812 C 99.523438 226.882812 99.523438 226.882812 99.503906 226.902344 C 99.71875 227.035156 102.492188 227.40625 102.695312 227.324219 C 102.625 227.308594 102.53125 227.292969 101.792969 227.179688 C 100.625 227.003906 99.984375 226.902344 99.609375 226.882812 " fill-opacity="1" fill-rule="nonzero"/></g><path fill="#1863c2" d="M 84.257812 148.457031 C 84.597656 147.703125 84.632812 146.886719 84.136719 146.921875 C 83.261719 147.085938 82.167969 148.914062 82.515625 149.644531 C 82.792969 150.234375 83.753906 149.582031 84.257812 148.457031 " fill-opacity="1" fill-rule="nonzero"/><path fill="#1863c2" d="M 75.210938 145.527344 C 75.167969 145.769531 75.816406 145.347656 76.71875 144.550781 C 76.734375 144.535156 78.226562 143.203125 78.117188 143.027344 C 77.71875 142.953125 75.300781 145.035156 75.210938 145.527344 " fill-opacity="1" fill-rule="nonzero"/><path fill="#1863c2" d="M 107.671875 187.605469 C 105.792969 188.175781 105.867188 190.351562 106.976562 191.246094 C 108.277344 192.292969 110.417969 191.332031 110.140625 189.375 C 109.960938 188.109375 108.855469 187.316406 107.671875 187.605469 " fill-opacity="1" fill-rule="nonzero"/><path fill="#1863c2" d="M 79.539062 143.476562 C 78.964844 143.46875 76.765625 145.5625 76.804688 146.082031 C 76.828125 146.355469 77.472656 146.011719 78.484375 144.984375 C 78.539062 144.929688 79.824219 143.617188 79.539062 143.476562 " fill-opacity="1" fill-rule="nonzero"/><path fill="#1863c2" d="M 110.078125 197.203125 C 108.386719 197.632812 108.1875 199.632812 109.382812 200.480469 C 110.71875 201.429688 112.652344 200.300781 112.425781 198.707031 C 112.320312 197.964844 111.589844 196.898438 110.078125 197.203125 " fill-opacity="1" fill-rule="nonzero"/><path fill="#1863c2" d="M 70.554688 147.597656 C 70.558594 147.589844 70.558594 147.578125 70.558594 147.566406 C 70.285156 147.691406 68.097656 150.28125 68.09375 150.488281 C 68.15625 150.449219 68.316406 150.277344 69.035156 149.441406 C 70.210938 148.070312 70.460938 147.753906 70.554688 147.597656 " fill-opacity="1" fill-rule="nonzero"/><path fill="#1863c2" d="M 105.230469 177.828125 C 103.335938 178.402344 103.492188 180.667969 104.714844 181.480469 C 106.128906 182.421875 107.886719 181.222656 107.613281 179.507812 C 107.421875 178.328125 106.332031 177.558594 105.230469 177.828125 " fill-opacity="1" fill-rule="nonzero"/><path fill="#1863c2" d="M 97.777344 164.789062 C 96.195312 165.246094 96.0625 167.34375 97.214844 168.183594 C 98.425781 169.0625 100.007812 167.941406 99.78125 166.371094 C 99.675781 165.648438 99.039062 164.582031 97.777344 164.789062 " fill-opacity="1" fill-rule="nonzero"/><path fill="#1863c2" d="M 111.136719 211.632812 C 110.992188 210.917969 110.199219 210.269531 109.011719 210.488281 C 107.550781 210.828125 107.398438 212.277344 108.398438 212.96875 C 109.609375 213.804688 111.402344 212.929688 111.136719 211.632812 " fill-opacity="1" fill-rule="nonzero"/><path fill="#1863c2" d="M 72.144531 146.59375 C 72.160156 146.578125 73.605469 145.1875 73.699219 144.941406 C 73.699219 144.941406 73.699219 144.941406 73.695312 144.929688 C 73.382812 144.917969 70.921875 147.320312 70.980469 147.578125 C 71.089844 147.589844 71.757812 146.964844 72.144531 146.59375 " fill-opacity="1" fill-rule="nonzero"/><path fill="#1863c2" d="M 102.5 171.765625 C 103.859375 172.660156 105.269531 171.375 105.015625 169.957031 C 104.882812 169.214844 104.121094 168.226562 102.90625 168.457031 C 101.589844 168.792969 101.117188 170.863281 102.5 171.765625 " fill-opacity="1" fill-rule="nonzero"/><path fill="#1863c2" d="M 114.289062 206.972656 C 114.191406 206.226562 113.386719 205.5625 112.25 205.789062 C 111.027344 206.097656 110.402344 207.578125 111.5 208.402344 C 112.765625 209.347656 114.457031 208.25 114.289062 206.972656 " fill-opacity="1" fill-rule="nonzero"/><g clip-path="url(#7d44de1420)"><path fill="#1863c2" d="M 102.902344 226.84375 C 102.78125 226.855469 102.75 226.863281 102.738281 226.894531 C 102.851562 227.117188 105.089844 227.363281 105.375 227.253906 C 105.375 227.246094 105.378906 227.238281 105.378906 227.234375 C 105.355469 227.21875 105.292969 227.171875 104.746094 227.0625 C 104.542969 227.023438 103.496094 226.820312 102.902344 226.84375 " fill-opacity="1" fill-rule="nonzero"/></g><path fill="#1863c2" d="M 82.503906 146.085938 C 82.582031 146.539062 83.34375 146.132812 84.019531 145.097656 C 84.445312 144.4375 84.6875 143.730469 84.328125 143.742188 C 83.679688 143.839844 82.402344 145.484375 82.503906 146.085938 " fill-opacity="1" fill-rule="nonzero"/><path fill="#1863c2" d="M 75.832031 143.84375 C 76.386719 143.394531 77.328125 142.613281 77.371094 142.4375 C 77.199219 142.285156 74.640625 144.351562 74.605469 144.671875 C 74.628906 144.695312 74.695312 144.761719 75.832031 143.84375 " fill-opacity="1" fill-rule="nonzero"/><path fill="#1863c2" d="M 92.007812 155.667969 C 92.699219 156.332031 93.914062 155.671875 93.875 154.355469 C 93.863281 153.84375 93.589844 152.90625 92.664062 153.039062 C 91.601562 153.265625 91.3125 155 92.007812 155.667969 " fill-opacity="1" fill-rule="nonzero"/><path fill="#1863c2" d="M 109 220.371094 C 108.933594 220.386719 108.839844 220.40625 108.773438 220.433594 C 107.941406 220.730469 108.128906 221.496094 108.867188 221.832031 C 109.714844 222.214844 110.914062 221.8125 110.640625 221.054688 C 110.507812 220.691406 109.964844 220.210938 109 220.371094 " fill-opacity="1" fill-rule="nonzero"/><path fill="#1863c2" d="M 90.777344 151.070312 C 90.851562 150.34375 90.550781 149.65625 89.917969 149.757812 C 88.941406 149.996094 88.527344 151.625 89.082031 152.261719 C 89.601562 152.855469 90.652344 152.277344 90.777344 151.070312 " fill-opacity="1" fill-rule="nonzero"/><path fill="#1863c2" d="M 107.902344 224.273438 C 108.691406 224.417969 109.390625 224.125 109.050781 223.609375 C 108.777344 223.191406 108.058594 222.953125 107.417969 223.066406 C 107.3125 223.085938 107.140625 223.125 107.003906 223.21875 C 106.5625 223.535156 107.054688 224.117188 107.902344 224.273438 " fill-opacity="1" fill-rule="nonzero"/><path fill="#1863c2" d="M 112.898438 217.804688 C 112.800781 217.398438 112.285156 216.863281 111.269531 217.054688 C 110.066406 217.375 110.128906 218.367188 110.847656 218.785156 C 111.792969 219.335938 113.117188 218.703125 112.898438 217.804688 " fill-opacity="1" fill-rule="nonzero"/><path fill="#1863c2" d="M 111.167969 181.695312 C 109.523438 182.152344 109.601562 184.1875 110.632812 184.957031 C 111.796875 185.824219 113.667969 184.847656 113.339844 183.132812 C 113.21875 182.496094 112.605469 181.375 111.167969 181.695312 " fill-opacity="1" fill-rule="nonzero"/><path fill="#1863c2" d="M 83.707031 140.707031 C 83.210938 140.734375 81.277344 142.378906 81.273438 142.777344 C 81.273438 142.976562 81.796875 142.710938 82.675781 141.925781 C 82.6875 141.914062 83.9375 140.792969 83.707031 140.707031 " fill-opacity="1" fill-rule="nonzero"/><path fill="#1863c2" d="M 79.621094 142.472656 C 79.601562 142.640625 80.160156 142.3125 81.007812 141.660156 C 81.144531 141.558594 82.332031 140.636719 82.347656 140.453125 C 82.34375 140.449219 82.339844 140.445312 82.335938 140.441406 C 81.960938 140.417969 79.652344 142.144531 79.621094 142.472656 " fill-opacity="1" fill-rule="nonzero"/><path fill="#1863c2" d="M 113.03125 194.65625 C 114.15625 195.476562 116.019531 194.570312 115.789062 192.929688 C 115.699219 192.292969 115.136719 191.179688 113.664062 191.507812 C 111.871094 192.09375 112.144531 194.003906 113.03125 194.65625 " fill-opacity="1" fill-rule="nonzero"/><path fill="#1863c2" d="M 95.828125 159.085938 C 96.738281 159.835938 97.976562 158.941406 97.808594 157.660156 C 97.730469 157.082031 97.257812 156.222656 96.3125 156.382812 C 95.242188 156.632812 94.9375 158.351562 95.828125 159.085938 " fill-opacity="1" fill-rule="nonzero"/><path fill="#1863c2" d="M 117.679688 201.761719 C 117.5625 200.941406 116.660156 200.40625 115.785156 200.640625 C 114.484375 201.0625 114.066406 202.550781 115.039062 203.296875 C 116.226562 204.203125 117.855469 203.027344 117.679688 201.761719 " fill-opacity="1" fill-rule="nonzero"/><path fill="#1863c2" d="M 108.058594 225.945312 C 108.4375 225.882812 108.488281 225.683594 108.183594 225.46875 C 107.933594 225.289062 107.289062 225.035156 106.625 225.117188 C 106.40625 225.152344 106.3125 225.21875 106.273438 225.269531 C 106.015625 225.605469 107.265625 226.082031 108.058594 225.945312 " fill-opacity="1" fill-rule="nonzero"/><path fill="#1863c2" d="M 87.101562 148.859375 C 87.445312 149.453125 88.332031 148.867188 88.613281 147.871094 C 88.796875 147.203125 88.652344 146.511719 88.152344 146.578125 C 87.390625 146.753906 86.722656 148.207031 87.101562 148.859375 " fill-opacity="1" fill-rule="nonzero"/><path fill="#1863c2" d="M 114.128906 213.140625 C 113.125 213.441406 112.734375 214.429688 113.390625 214.996094 C 114.320312 215.800781 115.800781 215.011719 115.734375 214.027344 C 115.691406 213.390625 114.894531 212.953125 114.128906 213.140625 " fill-opacity="1" fill-rule="nonzero"/><path fill="#1863c2" d="M 101.484375 162.699219 C 101.488281 162.699219 101.488281 162.699219 101.488281 162.699219 C 102.34375 162.421875 102.535156 161.558594 102.453125 161.046875 C 102.324219 160.203125 101.5 159.574219 100.757812 159.753906 C 100.605469 159.804688 100.292969 159.902344 100.035156 160.308594 C 99.3125 161.4375 100.21875 162.933594 101.484375 162.699219 " fill-opacity="1" fill-rule="nonzero"/><path fill="#1863c2" d="M 108.082031 175.136719 C 109.394531 176.125 110.851562 174.921875 110.59375 173.519531 C 110.4375 172.679688 109.609375 171.910156 108.535156 172.128906 C 107.238281 172.558594 106.976562 174.300781 108.082031 175.136719 " fill-opacity="1" fill-rule="nonzero"/><path fill="#1863c2" d="M 78.742188 141.929688 C 78.859375 141.96875 79.679688 141.417969 80.027344 141.183594 C 80.039062 141.171875 81.476562 140.183594 81.515625 140.03125 C 81.238281 139.964844 78.722656 141.683594 78.742188 141.929688 " fill-opacity="1" fill-rule="nonzero"/><path fill="#1863c2" d="M 87.414062 143.554688 C 86.839844 143.683594 85.960938 145.015625 86.1875 145.609375 C 86.386719 146.136719 87.171875 145.457031 87.515625 144.628906 C 87.738281 144.097656 87.742188 143.523438 87.414062 143.554688 " fill-opacity="1" fill-rule="nonzero"/><path fill="#1863c2" d="M 85.550781 140.796875 C 85.152344 140.808594 83.558594 142.3125 83.566406 142.796875 C 83.574219 143.109375 84.285156 142.585938 84.871094 141.941406 C 85.21875 141.5625 85.773438 140.832031 85.550781 140.796875 " fill-opacity="1" fill-rule="nonzero"/><path fill="#1863c2" d="M 108.1875 226.707031 C 107.796875 226.578125 107.070312 226.46875 106.683594 226.519531 C 106.609375 226.527344 106.492188 226.546875 106.472656 226.605469 C 106.390625 226.867188 108.125 227.070312 108.441406 226.925781 C 108.570312 226.867188 108.394531 226.773438 108.1875 226.707031 " fill-opacity="1" fill-rule="nonzero"/><path fill="#1863c2" d="M 74.144531 143.921875 C 74.148438 143.914062 74.152344 143.90625 74.15625 143.902344 C 73.992188 143.976562 71.941406 145.855469 71.835938 146.085938 C 71.875 146.058594 71.875 146.058594 72.71875 145.269531 C 73.800781 144.261719 74.058594 144.019531 74.144531 143.921875 " fill-opacity="1" fill-rule="nonzero"/><path fill="#1863c2" d="M 75.84375 142.894531 C 77.175781 141.875 77.277344 141.757812 77.347656 141.671875 C 77.207031 141.597656 74.917969 143.351562 74.898438 143.550781 C 74.921875 143.550781 74.976562 143.554688 75.84375 142.894531 " fill-opacity="1" fill-rule="nonzero"/><path fill="#1863c2" d="M 84.242188 139.613281 C 84.300781 139.683594 84.652344 139.492188 85.496094 138.925781 C 85.675781 138.804688 86.574219 138.199219 86.613281 138.085938 C 86.613281 138.082031 86.609375 138.082031 86.605469 138.078125 C 86.4375 138.054688 84.277344 139.324219 84.242188 139.613281 " fill-opacity="1" fill-rule="nonzero"/><path fill="#1863c2" d="M 118.921875 209.671875 C 118.921875 209.660156 118.855469 208.371094 117.433594 208.753906 C 115.792969 209.253906 116.503906 210.566406 116.660156 210.726562 C 117.1875 211.269531 118.847656 210.980469 118.921875 209.671875 " fill-opacity="1" fill-rule="nonzero"/><path fill="#1863c2" d="M 87.6875 140.78125 C 87.25 140.867188 86.269531 142.09375 86.320312 142.484375 C 86.359375 142.78125 86.921875 142.460938 87.390625 141.765625 C 87.507812 141.597656 88.054688 140.761719 87.6875 140.78125 " fill-opacity="1" fill-rule="nonzero"/><g clip-path="url(#c1230226b5)"><path fill="#1863c2" d="M 108.988281 227.273438 C 108.257812 227.242188 107.929688 227.238281 107.691406 227.257812 C 107.566406 227.269531 107.5625 227.28125 107.554688 227.292969 C 107.71875 227.386719 109.246094 227.363281 109.46875 227.308594 C 109.453125 227.300781 109.449219 227.292969 108.988281 227.273438 " fill-opacity="1" fill-rule="nonzero"/></g><path fill="#1863c2" d="M 118.8125 197.664062 C 119.03125 197.832031 119.632812 198.152344 120.488281 197.585938 C 120.769531 197.402344 121.222656 196.96875 121.105469 196.152344 C 120.953125 195.082031 120.09375 194.9375 119.402344 195.136719 C 118.011719 195.628906 118.15625 197.171875 118.8125 197.664062 " fill-opacity="1" fill-rule="nonzero"/><path fill="#1863c2" d="M 116.65625 188.367188 C 117.339844 188.933594 119.242188 188.609375 119.050781 186.777344 C 119.050781 186.761719 118.804688 185.117188 117.207031 185.523438 C 115.5 186.039062 116.085938 187.894531 116.65625 188.367188 " fill-opacity="1" fill-rule="nonzero"/><path fill="#1863c2" d="M 114.136719 178.542969 C 114.269531 178.632812 114.964844 179.050781 115.757812 178.503906 C 116.101562 178.261719 116.480469 177.8125 116.3125 177.03125 C 116.097656 176.023438 115.375 175.5625 114.429688 175.835938 C 113.039062 176.335938 113.355469 178.007812 114.136719 178.542969 " fill-opacity="1" fill-rule="nonzero"/><path fill="#1863c2" d="M 105.6875 165.78125 C 106.476562 166.242188 107.894531 165.8125 107.585938 164.394531 C 107.429688 163.65625 106.804688 163.011719 105.917969 163.203125 C 104.527344 163.59375 104.886719 165.3125 105.6875 165.78125 " fill-opacity="1" fill-rule="nonzero"/><path fill="#1863c2" d="M 81.140625 139.546875 C 81.140625 139.542969 81.136719 139.539062 81.136719 139.539062 C 80.90625 139.542969 78.9375 140.746094 78.664062 141.105469 C 78.785156 141.085938 79.066406 140.929688 79.785156 140.472656 C 80.800781 139.828125 81.105469 139.621094 81.140625 139.546875 " fill-opacity="1" fill-rule="nonzero"/><path fill="#1863c2" d="M 111.648438 224.332031 C 111.574219 224.347656 111.445312 224.378906 111.351562 224.445312 C 111.121094 224.605469 111.199219 224.941406 111.78125 225.078125 C 112.28125 225.191406 112.960938 225.007812 112.730469 224.632812 C 112.589844 224.402344 112.199219 224.222656 111.648438 224.332031 " fill-opacity="1" fill-rule="nonzero"/><path fill="#1863c2" d="M 85.71875 139.777344 C 85.902344 139.710938 86.15625 139.582031 86.757812 139.101562 C 87.246094 138.710938 87.808594 138.234375 87.695312 138.207031 C 87.695312 138.207031 87.695312 138.207031 87.691406 138.207031 C 87.445312 138.222656 85.507812 139.578125 85.71875 139.777344 " fill-opacity="1" fill-rule="nonzero"/><g clip-path="url(#fb8301d7fb)"><path fill="#1863c2" d="M 83.316406 139.316406 C 83.523438 139.257812 83.855469 139.085938 84.585938 138.660156 C 85.820312 137.9375 85.832031 137.894531 85.847656 137.855469 C 85.667969 137.828125 83.460938 139.03125 83.316406 139.316406 " fill-opacity="1" fill-rule="nonzero"/></g><path fill="#1863c2" d="M 113.3125 222.023438 C 113.273438 222.035156 113.238281 222.042969 113.199219 222.054688 C 112.707031 222.207031 112.449219 222.710938 113.074219 223.019531 C 113.628906 223.289062 114.558594 222.960938 114.386719 222.433594 C 114.355469 222.335938 114.160156 221.859375 113.3125 222.023438 " fill-opacity="1" fill-rule="nonzero"/><path fill="#1863c2" d="M 92.019531 147.789062 C 92.292969 148.140625 93.113281 148.03125 93.207031 146.917969 C 93.207031 146.90625 93.203125 145.925781 92.550781 146.019531 C 91.808594 146.179688 91.710938 147.386719 92.019531 147.789062 " fill-opacity="1" fill-rule="nonzero"/><path fill="#1863c2" d="M 94.898438 150.855469 C 94.902344 150.859375 95.320312 151.207031 95.710938 150.929688 C 95.851562 150.832031 96.226562 150.566406 96.183594 149.949219 C 96.179688 149.902344 96.097656 148.804688 95.246094 148.949219 C 94.414062 149.144531 94.394531 150.433594 94.898438 150.855469 " fill-opacity="1" fill-rule="nonzero"/><path fill="#1863c2" d="M 115.640625 219.089844 C 114.8125 219.324219 114.777344 219.972656 115.191406 220.273438 C 115.65625 220.613281 116.804688 220.304688 116.707031 219.574219 C 116.648438 219.128906 116.242188 218.941406 115.640625 219.089844 " fill-opacity="1" fill-rule="nonzero"/><path fill="#1863c2" d="M 111.328125 169.003906 C 111.964844 169.410156 113.378906 169.140625 113.136719 167.6875 C 113.09375 167.449219 112.644531 166.3125 111.480469 166.648438 C 110.132812 167.113281 110.769531 168.648438 111.328125 169.003906 " fill-opacity="1" fill-rule="nonzero"/><path fill="#1863c2" d="M 121.042969 203.832031 C 119.679688 204.292969 120.027344 205.46875 120.242188 205.742188 C 120.75 206.390625 122.3125 205.992188 122.394531 204.699219 C 122.410156 204.5 122.210938 203.492188 121.042969 203.832031 " fill-opacity="1" fill-rule="nonzero"/><path fill="#1863c2" d="M 76.8125 141.675781 C 77.894531 140.878906 77.894531 140.878906 77.960938 140.820312 C 77.96875 140.816406 77.976562 140.804688 77.980469 140.796875 C 77.808594 140.871094 76.25 142.035156 76.128906 142.179688 C 76.371094 142.03125 76.585938 141.84375 76.8125 141.675781 " fill-opacity="1" fill-rule="nonzero"/><g clip-path="url(#5d182a7b19)"><path fill="#1863c2" d="M 85.359375 137.578125 C 85.277344 137.53125 83.296875 138.5 83.066406 138.757812 C 83.128906 138.777344 83.433594 138.628906 84.132812 138.261719 C 85.113281 137.75 85.332031 137.628906 85.359375 137.578125 " fill-opacity="1" fill-rule="nonzero"/></g><path fill="#1863c2" d="M 111.613281 226.386719 C 111.941406 226.339844 112.003906 226.253906 111.816406 226.117188 C 111.8125 226.113281 111.402344 225.859375 110.8125 225.964844 C 110.742188 225.976562 110.597656 226.007812 110.550781 226.070312 C 110.4375 226.21875 111.035156 226.46875 111.613281 226.386719 " fill-opacity="1" fill-rule="nonzero"/><path fill="#1863c2" d="M 91.175781 144.050781 C 91.246094 143.65625 91.246094 143.195312 90.84375 143.242188 C 90.226562 143.359375 89.984375 144.535156 90.207031 144.824219 C 90.417969 145.097656 91.023438 144.902344 91.175781 144.050781 " fill-opacity="1" fill-rule="nonzero"/><path fill="#1863c2" d="M 119.59375 216.082031 C 119.582031 215.789062 119.441406 215.324219 118.601562 215.527344 C 117.378906 215.90625 117.878906 216.757812 117.992188 216.859375 C 118.398438 217.226562 119.621094 216.886719 119.59375 216.082031 " fill-opacity="1" fill-rule="nonzero"/><path fill="#1863c2" d="M 88.46875 138.992188 C 88.492188 138.96875 88.523438 138.9375 88.546875 138.910156 C 89.109375 138.324219 89.078125 138.261719 89.003906 138.261719 C 88.710938 138.308594 87.589844 139.347656 87.570312 139.585938 C 87.5625 139.695312 87.777344 139.695312 88.46875 138.992188 " fill-opacity="1" fill-rule="nonzero"/><path fill="#1863c2" d="M 98.675781 153.949219 C 99.203125 154.296875 100.207031 153.964844 99.992188 152.910156 C 99.878906 152.359375 99.519531 151.828125 98.855469 151.992188 C 97.84375 152.292969 98.191406 153.628906 98.675781 153.949219 " fill-opacity="1" fill-rule="nonzero"/><path fill="#1863c2" d="M 103.214844 156.992188 C 103.847656 157.363281 104.808594 156.902344 104.519531 155.929688 C 104.402344 155.53125 104.085938 154.894531 103.285156 155.078125 C 102.253906 155.363281 102.695312 156.6875 103.214844 156.992188 " fill-opacity="1" fill-rule="nonzero"/><path fill="#1863c2" d="M 120.132812 181.699219 C 120.703125 182.222656 122.15625 182.050781 122.03125 180.414062 C 121.996094 179.949219 121.4375 179.574219 121.429688 179.570312 C 121.074219 179.347656 120.734375 179.441406 120.554688 179.492188 C 119.300781 179.902344 119.65625 181.261719 120.132812 181.699219 " fill-opacity="1" fill-rule="nonzero"/><g clip-path="url(#6c5edfe0ab)"><path fill="#1863c2" d="M 110.828125 226.894531 C 110.78125 226.902344 110.675781 226.921875 110.679688 226.945312 C 110.683594 226.984375 110.921875 227.027344 111.300781 227.03125 C 111.488281 227.03125 111.921875 227.003906 111.945312 226.957031 C 111.933594 226.945312 111.910156 226.933594 111.765625 226.910156 C 111.761719 226.910156 111.234375 226.832031 110.828125 226.894531 " fill-opacity="1" fill-rule="nonzero"/></g><path fill="#1863c2" d="M 89.398438 141.925781 C 89.425781 142 89.507812 142.148438 89.738281 141.980469 C 89.863281 141.886719 90.050781 141.714844 90.207031 141.328125 C 90.316406 141.050781 90.460938 140.589844 90.175781 140.613281 C 89.792969 140.671875 89.289062 141.621094 89.398438 141.925781 " fill-opacity="1" fill-rule="nonzero"/><path fill="#1863c2" d="M 122.609375 191.484375 C 122.921875 191.703125 123.542969 191.714844 123.761719 191.5625 C 123.96875 191.417969 124.589844 190.984375 124.460938 190.191406 C 124.359375 189.550781 123.890625 189.023438 123.066406 189.285156 C 121.769531 189.765625 122.144531 191.160156 122.609375 191.484375 " fill-opacity="1" fill-rule="nonzero"/><path fill="#1863c2" d="M 80.148438 139.652344 C 80.160156 139.648438 81.183594 139.050781 81.296875 138.941406 C 81.296875 138.9375 81.296875 138.933594 81.296875 138.929688 C 81.128906 138.960938 79.578125 139.859375 79.375 140.074219 C 79.375 140.074219 79.375 140.078125 79.375 140.082031 C 79.441406 140.0625 79.628906 139.957031 80.148438 139.652344 " fill-opacity="1" fill-rule="nonzero"/><path fill="#1863c2" d="M 124.820312 198.515625 C 123.851562 198.835938 123.765625 199.832031 124.21875 200.292969 C 124.726562 200.800781 125.9375 200.257812 125.921875 199.320312 C 125.917969 199.132812 125.847656 198.222656 124.820312 198.515625 " fill-opacity="1" fill-rule="nonzero"/><path fill="#1863c2" d="M 122.882812 211.964844 C 122.886719 211.726562 122.804688 211.191406 122 211.402344 C 121.0625 211.683594 121.085938 212.480469 121.347656 212.757812 C 121.746094 213.179688 122.878906 212.71875 122.882812 211.964844 " fill-opacity="1" fill-rule="nonzero"/><path fill="#1863c2" d="M 117.332031 172.082031 C 117.992188 172.503906 119.128906 171.988281 118.84375 170.953125 C 118.769531 170.683594 118.453125 169.832031 117.476562 170.105469 C 116.378906 170.46875 116.789062 171.738281 117.332031 172.082031 " fill-opacity="1" fill-rule="nonzero"/><path fill="#1863c2" d="M 108.359375 159.957031 C 108.832031 160.257812 109.863281 160.066406 109.613281 159.015625 C 109.613281 159.003906 109.320312 157.957031 108.386719 158.230469 C 107.363281 158.582031 107.992188 159.722656 108.359375 159.957031 " fill-opacity="1" fill-rule="nonzero"/><path fill="#1863c2" d="M 90.308594 138.816406 C 90.355469 138.757812 90.734375 138.230469 90.550781 138.230469 C 90.273438 138.285156 89.699219 139.078125 89.707031 139.253906 C 89.707031 139.253906 89.789062 139.527344 90.308594 138.816406 " fill-opacity="1" fill-rule="nonzero"/><path fill="#1863c2" d="M 115.074219 225.207031 C 115.042969 225.214844 115.015625 225.222656 114.988281 225.230469 C 114.726562 225.320312 114.792969 225.457031 114.917969 225.519531 C 115.125 225.625 115.636719 225.539062 115.5625 225.316406 C 115.5625 225.316406 115.453125 225.132812 115.074219 225.207031 " fill-opacity="1" fill-rule="nonzero"/><path fill="#1863c2" d="M 125.652344 206.796875 C 125.152344 206.980469 124.800781 207.601562 125.125 207.984375 C 125.453125 208.375 126.34375 208.011719 126.410156 207.308594 C 126.457031 206.773438 126.0625 206.667969 125.652344 206.796875 " fill-opacity="1" fill-rule="nonzero"/><path fill="#1863c2" d="M 114.078125 162.871094 C 114.679688 163.171875 115.355469 162.695312 115.074219 161.964844 C 114.890625 161.488281 114.46875 161.261719 114.023438 161.40625 C 113.214844 161.710938 113.640625 162.65625 114.078125 162.871094 " fill-opacity="1" fill-rule="nonzero"/><path fill="#1863c2" d="M 116.796875 223.347656 C 116.410156 223.445312 116.347656 223.6875 116.476562 223.8125 C 116.699219 224.027344 117.308594 223.835938 117.292969 223.558594 C 117.289062 223.441406 117.175781 223.261719 116.796875 223.347656 " fill-opacity="1" fill-rule="nonzero"/><path fill="#1863c2" d="M 126.292969 184.8125 C 126.667969 185.09375 127.558594 184.773438 127.429688 183.953125 C 127.363281 183.546875 127.152344 183.101562 126.515625 183.296875 C 125.683594 183.59375 125.9375 184.546875 126.292969 184.8125 " fill-opacity="1" fill-rule="nonzero"/><path fill="#1863c2" d="M 128.546875 192.898438 C 127.75 193.179688 127.933594 194.054688 128.207031 194.25 C 128.207031 194.253906 128.554688 194.484375 128.980469 194.171875 C 129.074219 194.101562 129.367188 193.886719 129.320312 193.425781 C 129.292969 193.144531 129.15625 192.707031 128.546875 192.898438 " fill-opacity="1" fill-rule="nonzero"/><path fill="#1863c2" d="M 119.1875 220.832031 C 118.59375 221.011719 118.828125 221.414062 118.832031 221.417969 C 118.984375 221.609375 119.640625 221.460938 119.675781 221.070312 C 119.683594 220.957031 119.660156 220.707031 119.1875 220.832031 " fill-opacity="1" fill-rule="nonzero"/><path fill="#1863c2" d="M 100.863281 149.074219 C 101.128906 149.222656 101.679688 149.070312 101.496094 148.496094 C 101.4375 148.3125 101.253906 147.898438 100.832031 148.011719 C 100.261719 148.199219 100.613281 148.929688 100.863281 149.074219 " fill-opacity="1" fill-rule="nonzero"/><path fill="#1863c2" d="M 114.597656 226.382812 C 114.546875 226.359375 114.40625 226.308594 114.15625 226.359375 C 114.117188 226.367188 114.03125 226.386719 114.015625 226.414062 C 113.976562 226.484375 114.363281 226.527344 114.578125 226.453125 C 114.644531 226.429688 114.652344 226.40625 114.597656 226.382812 " fill-opacity="1" fill-rule="nonzero"/><path fill="#1863c2" d="M 97.152344 146.347656 C 97.34375 146.507812 97.863281 146.488281 97.789062 145.863281 C 97.789062 145.855469 97.6875 145.242188 97.226562 145.351562 C 96.777344 145.488281 96.9375 146.160156 97.152344 146.347656 " fill-opacity="1" fill-rule="nonzero"/><path fill="#1863c2" d="M 93.09375 140.816406 C 93.117188 140.667969 93.148438 140.335938 92.921875 140.367188 C 92.632812 140.429688 92.566406 141.019531 92.679688 141.148438 C 92.78125 141.273438 93.035156 141.195312 93.09375 140.816406 " fill-opacity="1" fill-rule="nonzero"/><path fill="#1863c2" d="M 94.425781 143.714844 C 94.484375 143.761719 94.636719 143.855469 94.8125 143.695312 C 94.886719 143.628906 94.972656 143.492188 94.953125 143.238281 C 94.941406 143.113281 94.886719 142.714844 94.574219 142.78125 C 94.167969 142.898438 94.25 143.5625 94.425781 143.714844 " fill-opacity="1" fill-rule="nonzero"/><path fill="#1863c2" d="M 123.5 175.054688 C 123.824219 175.25 124.703125 175.097656 124.507812 174.199219 C 124.507812 174.191406 124.304688 173.425781 123.59375 173.644531 C 122.78125 173.933594 123.167969 174.855469 123.5 175.054688 " fill-opacity="1" fill-rule="nonzero"/><path fill="#1863c2" d="M 105.386719 151.757812 C 105.699219 151.878906 105.78125 151.785156 105.886719 151.667969 C 105.9375 151.609375 106.046875 151.445312 105.929688 151.160156 C 105.796875 150.847656 105.511719 150.683594 105.234375 150.761719 C 105.21875 150.765625 105.203125 150.773438 105.1875 150.777344 C 104.820312 150.9375 104.953125 151.597656 105.386719 151.757812 " fill-opacity="1" fill-rule="nonzero"/><path fill="#1863c2" d="M 122.230469 217.632812 C 121.8125 217.757812 121.683594 218.101562 121.800781 218.273438 C 121.914062 218.433594 122.242188 218.351562 122.246094 218.351562 C 122.246094 218.347656 122.59375 218.164062 122.644531 217.929688 C 122.667969 217.820312 122.640625 217.523438 122.230469 217.632812 " fill-opacity="1" fill-rule="nonzero"/><path fill="#1863c2" d="M 125.675781 213.867188 C 125.253906 214.015625 125.28125 214.378906 125.339844 214.453125 C 125.457031 214.613281 125.933594 214.464844 126.007812 214.125 C 126.019531 214.0625 126.070312 213.742188 125.675781 213.867188 " fill-opacity="1" fill-rule="nonzero"/><g clip-path="url(#b8eb391f83)"><path fill="#1863c2" d="M 129.503906 201.753906 C 129.074219 201.90625 128.984375 202.421875 129.175781 202.632812 C 129.386719 202.867188 129.996094 202.566406 130.015625 202.117188 C 130.023438 201.917969 129.96875 201.601562 129.503906 201.753906 " fill-opacity="1" fill-rule="nonzero"/></g><path fill="#1863c2" d="M 120.078125 165.664062 C 120.386719 165.816406 120.945312 165.574219 120.742188 165.054688 C 120.664062 164.851562 120.472656 164.53125 120.0625 164.65625 C 119.464844 164.871094 119.816406 165.53125 120.078125 165.664062 " fill-opacity="1" fill-rule="nonzero"/><path fill="#1863c2" d="M 110.503906 154.363281 C 110.527344 154.371094 110.722656 154.441406 110.855469 154.316406 C 110.960938 154.210938 110.988281 154.089844 110.929688 153.953125 C 110.929688 153.945312 110.753906 153.53125 110.398438 153.628906 C 110.378906 153.632812 110.363281 153.640625 110.347656 153.648438 C 110.011719 153.804688 110.253906 154.261719 110.503906 154.363281 " fill-opacity="1" fill-rule="nonzero"/><g fill="#0b0f8f" fill-opacity="1"><g transform="translate(130.590846, 187.042562)"><g><path d="M 16.171875 0.5 C 13.203125 0.5 10.648438 -0.132812 8.515625 -1.40625 C 6.390625 -2.675781 4.753906 -4.453125 3.609375 -6.734375 C 2.460938 -9.015625 1.890625 -11.65625 1.890625 -14.65625 C 1.890625 -17.65625 2.460938 -20.300781 3.609375 -22.59375 C 4.753906 -24.894531 6.390625 -26.6875 8.515625 -27.96875 C 10.648438 -29.257812 13.203125 -29.90625 16.171875 -29.90625 C 19.703125 -29.90625 22.59375 -29.03125 24.84375 -27.28125 C 27.09375 -25.53125 28.5 -23.070312 29.0625 -19.90625 L 23.140625 -19.90625 C 22.773438 -21.5 22 -22.75 20.8125 -23.65625 C 19.625 -24.570312 18.050781 -25.03125 16.09375 -25.03125 C 13.375 -25.03125 11.242188 -24.101562 9.703125 -22.25 C 8.160156 -20.40625 7.390625 -17.875 7.390625 -14.65625 C 7.390625 -11.4375 8.160156 -8.910156 9.703125 -7.078125 C 11.242188 -5.242188 13.375 -4.328125 16.09375 -4.328125 C 18.050781 -4.328125 19.625 -4.753906 20.8125 -5.609375 C 22 -6.460938 22.773438 -7.644531 23.140625 -9.15625 L 29.0625 -9.15625 C 28.5 -6.132812 27.09375 -3.769531 24.84375 -2.0625 C 22.59375 -0.351562 19.703125 0.5 16.171875 0.5 Z M 16.171875 0.5 "/></g></g><g transform="translate(161.544843, 187.042562)"><g><path d="M 2.734375 0 L 2.734375 -30.234375 L 8.109375 -30.234375 L 8.109375 0 Z M 2.734375 0 "/></g></g></g><g fill="#0b0f8f" fill-opacity="1"><g transform="translate(172.422844, 187.042562)"><g><path d="M 12.859375 0.5 C 10.753906 0.5 8.890625 0.0507812 7.265625 -0.84375 C 5.640625 -1.738281 4.363281 -3 3.4375 -4.625 C 2.519531 -6.25 2.0625 -8.125 2.0625 -10.25 C 2.0625 -12.40625 2.515625 -14.320312 3.421875 -16 C 4.328125 -17.675781 5.585938 -18.984375 7.203125 -19.921875 C 8.816406 -20.867188 10.710938 -21.34375 12.890625 -21.34375 C 14.929688 -21.34375 16.734375 -20.890625 18.296875 -19.984375 C 19.867188 -19.085938 21.097656 -17.863281 21.984375 -16.3125 C 22.867188 -14.757812 23.3125 -13.03125 23.3125 -11.125 C 23.3125 -10.820312 23.300781 -10.5 23.28125 -10.15625 C 23.269531 -9.820312 23.25 -9.472656 23.21875 -9.109375 L 7.390625 -9.109375 C 7.503906 -7.484375 8.070312 -6.207031 9.09375 -5.28125 C 10.113281 -4.363281 11.351562 -3.90625 12.8125 -3.90625 C 13.90625 -3.90625 14.820312 -4.148438 15.5625 -4.640625 C 16.300781 -5.128906 16.851562 -5.765625 17.21875 -6.546875 L 22.6875 -6.546875 C 22.289062 -5.234375 21.632812 -4.035156 20.71875 -2.953125 C 19.8125 -1.878906 18.691406 -1.035156 17.359375 -0.421875 C 16.035156 0.191406 14.535156 0.5 12.859375 0.5 Z M 12.890625 -16.96875 C 11.578125 -16.96875 10.414062 -16.59375 9.40625 -15.84375 C 8.394531 -15.101562 7.75 -13.976562 7.46875 -12.46875 L 17.84375 -12.46875 C 17.757812 -13.84375 17.253906 -14.9375 16.328125 -15.75 C 15.410156 -16.5625 14.265625 -16.96875 12.890625 -16.96875 Z M 12.890625 -16.96875 "/></g></g></g><g fill="#0b0f8f" fill-opacity="1"><g transform="translate(197.538835, 187.042562)"><g><path d="M 9.90625 0.5 C 8.113281 0.5 6.644531 0.210938 5.5 -0.359375 C 4.351562 -0.929688 3.5 -1.691406 2.9375 -2.640625 C 2.375 -3.597656 2.09375 -4.648438 2.09375 -5.796875 C 2.09375 -7.722656 2.847656 -9.289062 4.359375 -10.5 C 5.878906 -11.707031 8.148438 -12.3125 11.171875 -12.3125 L 16.46875 -12.3125 L 16.46875 -12.8125 C 16.46875 -14.238281 16.0625 -15.285156 15.25 -15.953125 C 14.4375 -16.628906 13.425781 -16.96875 12.21875 -16.96875 C 11.125 -16.96875 10.171875 -16.707031 9.359375 -16.1875 C 8.546875 -15.664062 8.046875 -14.90625 7.859375 -13.90625 L 2.609375 -13.90625 C 2.742188 -15.414062 3.25 -16.726562 4.125 -17.84375 C 5.007812 -18.96875 6.148438 -19.832031 7.546875 -20.4375 C 8.953125 -21.039062 10.523438 -21.34375 12.265625 -21.34375 C 15.234375 -21.34375 17.570312 -20.597656 19.28125 -19.109375 C 20.988281 -17.628906 21.84375 -15.53125 21.84375 -12.8125 L 21.84375 0 L 17.265625 0 L 16.765625 -3.359375 C 16.140625 -2.242188 15.273438 -1.320312 14.171875 -0.59375 C 13.066406 0.132812 11.644531 0.5 9.90625 0.5 Z M 11.125 -3.703125 C 12.664062 -3.703125 13.863281 -4.203125 14.71875 -5.203125 C 15.570312 -6.210938 16.113281 -7.460938 16.34375 -8.953125 L 11.765625 -8.953125 C 10.335938 -8.953125 9.3125 -8.691406 8.6875 -8.171875 C 8.070312 -7.648438 7.765625 -7.015625 7.765625 -6.265625 C 7.765625 -5.453125 8.070312 -4.820312 8.6875 -4.375 C 9.3125 -3.925781 10.125 -3.703125 11.125 -3.703125 Z M 11.125 -3.703125 "/></g></g></g><g fill="#0b0f8f" fill-opacity="1"><g transform="translate(221.772831, 187.042562)"><g><path d="M 2.734375 0 L 2.734375 -20.828125 L 7.515625 -20.828125 L 8.015625 -16.921875 C 8.773438 -18.265625 9.804688 -19.335938 11.109375 -20.140625 C 12.410156 -20.941406 13.941406 -21.34375 15.703125 -21.34375 L 15.703125 -15.671875 L 14.203125 -15.671875 C 13.023438 -15.671875 11.972656 -15.488281 11.046875 -15.125 C 10.117188 -14.757812 9.394531 -14.128906 8.875 -13.234375 C 8.363281 -12.335938 8.109375 -11.085938 8.109375 -9.484375 L 8.109375 0 Z M 2.734375 0 "/></g></g></g><g fill="#0b0f8f" fill-opacity="1"><g transform="translate(238.404826, 187.042562)"><g><path d="M 15.703125 0.5 C 12.929688 0.5 10.507812 -0.128906 8.4375 -1.390625 C 6.363281 -2.648438 4.753906 -4.40625 3.609375 -6.65625 C 2.460938 -8.90625 1.890625 -11.53125 1.890625 -14.53125 C 1.890625 -17.550781 2.484375 -20.21875 3.671875 -22.53125 C 4.859375 -24.84375 6.550781 -26.648438 8.75 -27.953125 C 10.945312 -29.253906 13.5625 -29.90625 16.59375 -29.90625 C 20.03125 -29.90625 22.882812 -29.078125 25.15625 -27.421875 C 27.425781 -25.773438 28.894531 -23.492188 29.5625 -20.578125 L 23.5625 -20.578125 C 23.113281 -21.953125 22.300781 -23.023438 21.125 -23.796875 C 19.945312 -24.566406 18.4375 -24.953125 16.59375 -24.953125 C 13.65625 -24.953125 11.382812 -24.019531 9.78125 -22.15625 C 8.1875 -20.289062 7.390625 -17.734375 7.390625 -14.484375 C 7.390625 -11.242188 8.179688 -8.734375 9.765625 -6.953125 C 11.347656 -5.171875 13.5 -4.28125 16.21875 -4.28125 C 18.875 -4.28125 20.878906 -5 22.234375 -6.4375 C 23.597656 -7.882812 24.421875 -9.785156 24.703125 -12.140625 L 17.265625 -12.140625 L 17.265625 -16.171875 L 30.109375 -16.171875 L 30.109375 0 L 25.15625 0 L 24.734375 -3.859375 C 23.785156 -2.460938 22.597656 -1.382812 21.171875 -0.625 C 19.742188 0.125 17.921875 0.5 15.703125 0.5 Z M 15.703125 0.5 "/></g></g></g><g fill="#0b0f8f" fill-opacity="1"><g transform="translate(270.870819, 187.042562)"><g><path d="M 12.71875 0.5 C 10.707031 0.5 8.894531 0.0390625 7.28125 -0.875 C 5.675781 -1.800781 4.40625 -3.082031 3.46875 -4.71875 C 2.53125 -6.363281 2.0625 -8.265625 2.0625 -10.421875 C 2.0625 -12.578125 2.535156 -14.472656 3.484375 -16.109375 C 4.429688 -17.742188 5.710938 -19.023438 7.328125 -19.953125 C 8.941406 -20.878906 10.753906 -21.34375 12.765625 -21.34375 C 14.753906 -21.34375 16.550781 -20.878906 18.15625 -19.953125 C 19.769531 -19.023438 21.046875 -17.742188 21.984375 -16.109375 C 22.921875 -14.472656 23.390625 -12.578125 23.390625 -10.421875 C 23.390625 -8.265625 22.921875 -6.363281 21.984375 -4.71875 C 21.046875 -3.082031 19.765625 -1.800781 18.140625 -0.875 C 16.515625 0.0390625 14.707031 0.5 12.71875 0.5 Z M 12.71875 -4.15625 C 14.125 -4.15625 15.34375 -4.679688 16.375 -5.734375 C 17.414062 -6.785156 17.9375 -8.347656 17.9375 -10.421875 C 17.9375 -12.492188 17.414062 -14.050781 16.375 -15.09375 C 15.34375 -16.144531 14.140625 -16.671875 12.765625 -16.671875 C 11.335938 -16.671875 10.113281 -16.144531 9.09375 -15.09375 C 8.070312 -14.050781 7.5625 -12.492188 7.5625 -10.421875 C 7.5625 -8.347656 8.070312 -6.785156 9.09375 -5.734375 C 10.113281 -4.679688 11.320312 -4.15625 12.71875 -4.15625 Z M 12.71875 -4.15625 "/></g></g></g><g fill="#0b0f8f" fill-opacity="1"><g transform="translate(296.322809, 187.042562)"><g><path d="M 9.90625 0.5 C 8.113281 0.5 6.644531 0.210938 5.5 -0.359375 C 4.351562 -0.929688 3.5 -1.691406 2.9375 -2.640625 C 2.375 -3.597656 2.09375 -4.648438 2.09375 -5.796875 C 2.09375 -7.722656 2.847656 -9.289062 4.359375 -10.5 C 5.878906 -11.707031 8.148438 -12.3125 11.171875 -12.3125 L 16.46875 -12.3125 L 16.46875 -12.8125 C 16.46875 -14.238281 16.0625 -15.285156 15.25 -15.953125 C 14.4375 -16.628906 13.425781 -16.96875 12.21875 -16.96875 C 11.125 -16.96875 10.171875 -16.707031 9.359375 -16.1875 C 8.546875 -15.664062 8.046875 -14.90625 7.859375 -13.90625 L 2.609375 -13.90625 C 2.742188 -15.414062 3.25 -16.726562 4.125 -17.84375 C 5.007812 -18.96875 6.148438 -19.832031 7.546875 -20.4375 C 8.953125 -21.039062 10.523438 -21.34375 12.265625 -21.34375 C 15.234375 -21.34375 17.570312 -20.597656 19.28125 -19.109375 C 20.988281 -17.628906 21.84375 -15.53125 21.84375 -12.8125 L 21.84375 0 L 17.265625 0 L 16.765625 -3.359375 C 16.140625 -2.242188 15.273438 -1.320312 14.171875 -0.59375 C 13.066406 0.132812 11.644531 0.5 9.90625 0.5 Z M 11.125 -3.703125 C 12.664062 -3.703125 13.863281 -4.203125 14.71875 -5.203125 C 15.570312 -6.210938 16.113281 -7.460938 16.34375 -8.953125 L 11.765625 -8.953125 C 10.335938 -8.953125 9.3125 -8.691406 8.6875 -8.171875 C 8.070312 -7.648438 7.765625 -7.015625 7.765625 -6.265625 C 7.765625 -5.453125 8.070312 -4.820312 8.6875 -4.375 C 9.3125 -3.925781 10.125 -3.703125 11.125 -3.703125 Z M 11.125 -3.703125 "/></g></g></g><g fill="#0b0f8f" fill-opacity="1"><g transform="translate(320.556805, 187.042562)"><g><path d="M 2.734375 0 L 2.734375 -30.234375 L 8.109375 -30.234375 L 8.109375 0 Z M 2.734375 0 "/></g></g></g><g fill="#0b0f8f" fill-opacity="1"><g transform="translate(331.42677, 187.042562)"><g/></g></g><g fill="#2e3192" fill-opacity="1"><g transform="translate(140.384528, 205.449992)"><g><path d="M 3.082031 -14.71875 C 2.253906 -14.71875 1.585938 -14.074219 1.585938 -13.246094 L 1.585938 -1.472656 C 1.585938 -0.667969 2.253906 0 3.082031 0 L 7.035156 0 C 11.082031 0 14.511719 -3.289062 14.511719 -7.335938 C 14.511719 -11.382812 11.082031 -14.71875 7.035156 -14.71875 Z M 4.597656 -2.757812 L 4.597656 -11.957031 L 7.105469 -11.957031 C 9.726562 -11.957031 11.519531 -9.957031 11.519531 -7.359375 C 11.519531 -4.714844 9.726562 -2.757812 7.105469 -2.757812 Z M 4.597656 -2.757812 "/></g></g></g><g fill="#2e3192" fill-opacity="1"><g transform="translate(154.961311, 205.449992)"><g><path d="M 3.082031 0 C 3.910156 0 4.597656 -0.667969 4.597656 -1.472656 L 4.597656 -13.246094 C 4.597656 -14.074219 3.910156 -14.71875 3.082031 -14.71875 C 2.253906 -14.71875 1.585938 -14.074219 1.585938 -13.246094 L 1.585938 -1.472656 C 1.585938 -0.667969 2.253906 0 3.082031 0 Z M 3.082031 0 "/></g></g></g><g fill="#2e3192" fill-opacity="1"><g transform="translate(160.249224, 205.449992)"><g><path d="M 8.277344 0.183594 C 10.300781 0.183594 11.75 -0.34375 13.429688 -1.679688 C 13.980469 -2.09375 14.164062 -2.574219 14.164062 -3.128906 L 14.164062 -6.484375 C 14.164062 -7.3125 13.476562 -7.957031 12.625 -7.957031 L 9.449219 -7.957031 C 8.625 -7.957031 7.980469 -7.359375 7.980469 -6.554688 C 7.980469 -5.933594 8.625 -5.289062 9.449219 -5.289062 L 11.335938 -5.289062 L 11.335938 -3.585938 C 10.601562 -2.898438 9.519531 -2.644531 8.371094 -2.644531 C 5.863281 -2.644531 3.957031 -4.78125 3.957031 -7.335938 C 3.957031 -10.1875 5.980469 -12.09375 8.394531 -12.09375 C 9.566406 -12.09375 10.625 -11.566406 11.542969 -10.808594 C 12.210938 -10.347656 13.199219 -10.253906 13.660156 -10.898438 C 14.140625 -11.542969 14.003906 -12.394531 13.335938 -12.96875 C 11.796875 -14.371094 10.324219 -14.945312 8.347656 -14.945312 C 4.207031 -14.945312 0.964844 -11.40625 0.964844 -7.335938 C 0.964844 -3.195312 4.367188 0.183594 8.277344 0.183594 Z M 8.277344 0.183594 "/></g></g></g><g fill="#2e3192" fill-opacity="1"><g transform="translate(174.481127, 205.449992)"><g><path d="M 3.082031 0 C 3.910156 0 4.597656 -0.667969 4.597656 -1.472656 L 4.597656 -13.246094 C 4.597656 -14.074219 3.910156 -14.71875 3.082031 -14.71875 C 2.253906 -14.71875 1.585938 -14.074219 1.585938 -13.246094 L 1.585938 -1.472656 C 1.585938 -0.667969 2.253906 0 3.082031 0 Z M 3.082031 0 "/></g></g></g><g fill="#2e3192" fill-opacity="1"><g transform="translate(179.769041, 205.449992)"><g><path d="M 1.609375 -14.71875 C 0.78125 -14.71875 0.113281 -14.050781 0.113281 -13.246094 C 0.113281 -12.601562 0.78125 -11.933594 1.609375 -11.933594 L 4.621094 -11.933594 L 4.621094 -1.472656 C 4.621094 -0.644531 5.289062 0 6.117188 0 C 6.945312 0 7.632812 -0.644531 7.632812 -1.472656 L 7.632812 -11.933594 L 10.648438 -11.933594 C 11.472656 -11.933594 12.140625 -12.578125 12.140625 -13.246094 C 12.140625 -14.050781 11.472656 -14.71875 10.648438 -14.71875 Z M 1.609375 -14.71875 "/></g></g></g><g fill="#2e3192" fill-opacity="1"><g transform="translate(191.149903, 205.449992)"><g><path d="M 8.738281 -13.335938 C 8.324219 -14.371094 7.886719 -14.71875 7.011719 -14.71875 C 6.140625 -14.71875 5.585938 -14.097656 5.265625 -13.3125 L 0.597656 -2.117188 C 0.183594 -1.035156 0.78125 0 1.929688 0 C 2.53125 0 3.082031 -0.320312 3.3125 -0.898438 L 3.957031 -2.597656 L 10.117188 -2.597656 L 10.761719 -0.917969 C 10.96875 -0.320312 11.542969 0.0234375 12.164062 0 C 13.335938 0 13.890625 -1.195312 13.453125 -2.117188 Z M 7.035156 -10.625 L 9.058594 -5.359375 L 5.011719 -5.359375 Z M 7.035156 -10.625 "/></g></g></g><g fill="#2e3192" fill-opacity="1"><g transform="translate(204.301167, 205.449992)"><g><path d="M 4.597656 -2.757812 L 4.597656 -13.246094 C 4.597656 -14.074219 3.910156 -14.71875 3.082031 -14.71875 C 2.253906 -14.71875 1.585938 -14.074219 1.585938 -13.246094 L 1.585938 -1.496094 C 1.585938 -0.550781 2.09375 0 3.082031 0 L 10.371094 0 C 11.222656 0 11.84375 -0.667969 11.84375 -1.472656 C 11.84375 -2.070312 11.199219 -2.757812 10.371094 -2.757812 Z M 4.597656 -2.757812 "/></g></g></g><g fill="#2e3192" fill-opacity="1"><g transform="translate(215.383132, 205.449992)"><g/></g></g><g fill="#2e3192" fill-opacity="1"><g transform="translate(220.02727, 205.449992)"><g><path d="M 5.816406 0.207031 C 8.945312 0.207031 11.152344 -1.816406 11.152344 -4.347656 C 11.152344 -6.921875 9.058594 -7.980469 6.253906 -8.96875 C 5.195312 -9.335938 4.183594 -9.773438 4.183594 -10.855469 C 4.183594 -11.75 4.921875 -12.117188 5.679688 -12.117188 C 6.714844 -12.117188 7.566406 -11.820312 8.210938 -11.246094 C 8.921875 -10.667969 9.75 -10.832031 10.140625 -11.222656 C 10.484375 -11.566406 10.738281 -12.234375 10.417969 -12.785156 C 9.542969 -14.210938 7.679688 -14.945312 5.863281 -14.945312 C 3.265625 -14.945312 1.242188 -13.429688 1.242188 -10.785156 C 1.242188 -8.1875 3.171875 -7.21875 5.679688 -6.300781 C 7.289062 -5.679688 8.164062 -5.242188 8.164062 -4.347656 C 8.164062 -3.128906 7.3125 -2.621094 6.117188 -2.621094 C 4.78125 -2.621094 3.886719 -3.105469 3.378906 -3.769531 C 2.964844 -4.253906 2.507812 -4.367188 2.136719 -4.367188 C 1.035156 -4.367188 0.34375 -3.128906 1.035156 -2.183594 C 1.769531 -1.058594 3.378906 0.207031 5.816406 0.207031 Z M 5.816406 0.207031 "/></g></g></g><g fill="#2e3192" fill-opacity="1"><g transform="translate(231.339159, 205.449992)"><g><path d="M 8.578125 0.207031 C 12.691406 0.207031 16.257812 -3.148438 16.257812 -7.335938 C 16.257812 -11.519531 12.691406 -14.945312 8.578125 -14.945312 C 4.414062 -14.945312 0.964844 -11.519531 0.964844 -7.335938 C 0.964844 -3.148438 4.414062 0.207031 8.578125 0.207031 Z M 8.578125 -2.621094 C 5.933594 -2.621094 3.957031 -4.621094 3.957031 -7.335938 C 3.957031 -10.09375 5.933594 -12.117188 8.578125 -12.117188 C 11.246094 -12.117188 13.246094 -10.09375 13.246094 -7.335938 C 13.246094 -4.621094 11.246094 -2.621094 8.578125 -2.621094 Z M 8.578125 -2.621094 "/></g></g></g><g fill="#2e3192" fill-opacity="1"><g transform="translate(247.640357, 205.449992)"><g><path d="M 4.597656 -2.757812 L 4.597656 -13.246094 C 4.597656 -14.074219 3.910156 -14.71875 3.082031 -14.71875 C 2.253906 -14.71875 1.585938 -14.074219 1.585938 -13.246094 L 1.585938 -1.496094 C 1.585938 -0.550781 2.09375 0 3.082031 0 L 10.371094 0 C 11.222656 0 11.84375 -0.667969 11.84375 -1.472656 C 11.84375 -2.070312 11.199219 -2.757812 10.371094 -2.757812 Z M 4.597656 -2.757812 "/></g></g></g><g fill="#2e3192" fill-opacity="1"><g transform="translate(258.722323, 205.449992)"><g><path d="M 12.625 -14.71875 C 11.820312 -14.71875 11.128906 -14.074219 11.128906 -13.246094 L 11.128906 -6.253906 C 11.128906 -4.277344 9.566406 -2.644531 7.703125 -2.644531 C 5.679688 -2.644531 4.160156 -4.253906 4.160156 -6.230469 L 4.160156 -13.222656 C 4.160156 -14.050781 3.496094 -14.71875 2.667969 -14.71875 C 1.839844 -14.71875 1.195312 -14.050781 1.195312 -13.222656 L 1.195312 -6.394531 C 1.195312 -2.804688 4.046875 0.207031 7.679688 0.207031 C 11.105469 0.207031 14.140625 -2.804688 14.140625 -6.394531 L 14.140625 -13.246094 C 14.140625 -14.074219 13.453125 -14.71875 12.625 -14.71875 Z M 12.625 -14.71875 "/></g></g></g><g fill="#2e3192" fill-opacity="1"><g transform="translate(273.138158, 205.449992)"><g><path d="M 1.609375 -14.71875 C 0.78125 -14.71875 0.113281 -14.050781 0.113281 -13.246094 C 0.113281 -12.601562 0.78125 -11.933594 1.609375 -11.933594 L 4.621094 -11.933594 L 4.621094 -1.472656 C 4.621094 -0.644531 5.289062 0 6.117188 0 C 6.945312 0 7.632812 -0.644531 7.632812 -1.472656 L 7.632812 -11.933594 L 10.648438 -11.933594 C 11.472656 -11.933594 12.140625 -12.578125 12.140625 -13.246094 C 12.140625 -14.050781 11.472656 -14.71875 10.648438 -14.71875 Z M 1.609375 -14.71875 "/></g></g></g><g fill="#2e3192" fill-opacity="1"><g transform="translate(284.519021, 205.449992)"><g><path d="M 3.082031 0 C 3.910156 0 4.597656 -0.667969 4.597656 -1.472656 L 4.597656 -13.246094 C 4.597656 -14.074219 3.910156 -14.71875 3.082031 -14.71875 C 2.253906 -14.71875 1.585938 -14.074219 1.585938 -13.246094 L 1.585938 -1.472656 C 1.585938 -0.667969 2.253906 0 3.082031 0 Z M 3.082031 0 "/></g></g></g><g fill="#2e3192" fill-opacity="1"><g transform="translate(289.806935, 205.449992)"><g><path d="M 8.578125 0.207031 C 12.691406 0.207031 16.257812 -3.148438 16.257812 -7.335938 C 16.257812 -11.519531 12.691406 -14.945312 8.578125 -14.945312 C 4.414062 -14.945312 0.964844 -11.519531 0.964844 -7.335938 C 0.964844 -3.148438 4.414062 0.207031 8.578125 0.207031 Z M 8.578125 -2.621094 C 5.933594 -2.621094 3.957031 -4.621094 3.957031 -7.335938 C 3.957031 -10.09375 5.933594 -12.117188 8.578125 -12.117188 C 11.246094 -12.117188 13.246094 -10.09375 13.246094 -7.335938 C 13.246094 -4.621094 11.246094 -2.621094 8.578125 -2.621094 Z M 8.578125 -2.621094 "/></g></g></g><g fill="#2e3192" fill-opacity="1"><g transform="translate(306.108139, 205.449992)"><g><path d="M 13.152344 -14.71875 C 12.324219 -14.71875 11.636719 -14.074219 11.636719 -13.246094 L 11.636719 -5.359375 L 4.277344 -14.164062 C 3.792969 -14.71875 3.058594 -14.832031 2.484375 -14.601562 C 2 -14.394531 1.585938 -13.890625 1.585938 -13.199219 L 1.585938 -1.472656 C 1.585938 -0.667969 2.253906 0 3.082031 0 C 3.910156 0 4.597656 -0.667969 4.597656 -1.472656 L 4.597656 -9.472656 L 12.074219 -0.574219 C 12.53125 0.0234375 13.199219 0.113281 13.703125 -0.09375 C 14.234375 -0.320312 14.648438 -0.851562 14.648438 -1.472656 L 14.648438 -13.246094 C 14.648438 -14.074219 13.980469 -14.71875 13.152344 -14.71875 Z M 13.152344 -14.71875 "/></g></g></g><g fill="#2e3192" fill-opacity="1"><g transform="translate(321.443667, 205.449992)"><g><path d="M 5.816406 0.207031 C 8.945312 0.207031 11.152344 -1.816406 11.152344 -4.347656 C 11.152344 -6.921875 9.058594 -7.980469 6.253906 -8.96875 C 5.195312 -9.335938 4.183594 -9.773438 4.183594 -10.855469 C 4.183594 -11.75 4.921875 -12.117188 5.679688 -12.117188 C 6.714844 -12.117188 7.566406 -11.820312 8.210938 -11.246094 C 8.921875 -10.667969 9.75 -10.832031 10.140625 -11.222656 C 10.484375 -11.566406 10.738281 -12.234375 10.417969 -12.785156 C 9.542969 -14.210938 7.679688 -14.945312 5.863281 -14.945312 C 3.265625 -14.945312 1.242188 -13.429688 1.242188 -10.785156 C 1.242188 -8.1875 3.171875 -7.21875 5.679688 -6.300781 C 7.289062 -5.679688 8.164062 -5.242188 8.164062 -4.347656 C 8.164062 -3.128906 7.3125 -2.621094 6.117188 -2.621094 C 4.78125 -2.621094 3.886719 -3.105469 3.378906 -3.769531 C 2.964844 -4.253906 2.507812 -4.367188 2.136719 -4.367188 C 1.035156 -4.367188 0.34375 -3.128906 1.035156 -2.183594 C 1.769531 -1.058594 3.378906 0.207031 5.816406 0.207031 Z M 5.816406 0.207031 "/></g></g></g><g fill="#2e3192" fill-opacity="1"><g transform="translate(332.7478, 205.449992)"><g/></g></g></svg>