<svg width="150" height="22" viewBox="0 0 150 22" fill="none" xmlns="http://www.w3.org/2000/svg">
<path d="M3.92 4.9V19.74L6.16 20.58V21H0.84V20.58L3.08 19.74V2.24L1.4 1.82V1.4H4.9C5.87067 1.4 6.636 1.60533 7.196 2.016C7.77467 2.408 8.26933 2.996 8.68 3.78L14.784 15.456L19.46 3.78C19.7773 2.95867 20.2067 2.36133 20.748 1.988C21.2893 1.596 22.12 1.4 23.24 1.4H26.18V1.82L24.5 2.24V20.16L26.18 20.58V21H18.2V20.58L19.88 20.16V4.9L13.3 21.28H12.46L3.92 4.9ZM28.7164 20.58L30.3964 20.16V2.24L28.7164 1.82V1.4H43.6964V6.44H42.8564C42.5017 6.16 42.1937 5.80533 41.9324 5.376C41.3351 4.368 41.0364 3.276 41.0364 2.1H35.0164V10.92H38.2364C38.3671 10.2107 38.6097 9.548 38.9644 8.932C39.1137 8.652 39.2911 8.38133 39.4964 8.12H40.3364V14.42H39.4964C39.2911 14.1587 39.1137 13.888 38.9644 13.608C38.6097 12.992 38.3671 12.3293 38.2364 11.62H35.0164V20.3H41.5964C41.5964 19.124 41.8951 18.032 42.4924 17.024C42.7537 16.5947 43.0617 16.24 43.4164 15.96H44.2564V21H28.7164V20.58ZM46.7633 20.58L48.4433 20.16V2.24L46.7633 1.82V1.4H53.9033C57.2446 1.4 59.8019 2.25867 61.5753 3.976C63.3673 5.69333 64.2633 8.10133 64.2633 11.2C64.2633 14.2987 63.3673 16.7067 61.5753 18.424C59.8019 20.1413 57.2446 21 53.9033 21H46.7633V20.58ZM53.9033 20.3C55.6393 20.3 56.9833 19.6 57.9353 18.2C58.8873 16.7813 59.3633 14.448 59.3633 11.2C59.3633 7.952 58.8873 5.628 57.9353 4.228C56.9833 2.80933 55.6393 2.1 53.9033 2.1H53.0633V20.3H53.9033Z" fill="#BFD2F8"/>
<path d="M66.7789 20.58L68.4589 20.16V2.24L66.7789 1.82V1.4H73.9189C77.2602 1.4 79.8176 2.25867 81.5909 3.976C83.3829 5.69333 84.2789 8.10133 84.2789 11.2C84.2789 14.2987 83.3829 16.7067 81.5909 18.424C79.8176 20.1413 77.2602 21 73.9189 21H66.7789V20.58ZM73.9189 20.3C75.6549 20.3 76.9989 19.6 77.9509 18.2C78.9029 16.7813 79.3789 14.448 79.3789 11.2C79.3789 7.952 78.9029 5.628 77.9509 4.228C76.9989 2.80933 75.6549 2.1 73.9189 2.1H73.0789V20.3H73.9189ZM86.7945 21V20.58L88.4745 20.16V2.24L86.7945 1.82V1.4H94.7745V1.82L93.0945 2.24V20.16L94.7745 20.58V21H86.7945ZM106.948 21.42C103.961 21.42 101.628 20.5333 99.948 18.76C98.268 16.9867 97.428 14.4667 97.428 11.2C97.428 9.05333 97.792 7.21467 98.52 5.684C99.2666 4.13467 100.303 2.968 101.628 2.184C102.972 1.38133 104.521 0.979999 106.276 0.979999C107.34 0.979999 108.413 1.288 109.496 1.904C109.907 2.128 110.317 2.42667 110.728 2.8C111.045 2.31467 111.372 1.932 111.708 1.652C112.044 1.40933 112.231 1.27867 112.268 1.26H112.968V6.58H111.848C111.605 5.684 111.241 4.872 110.756 4.144C110.308 3.43467 109.748 2.84667 109.076 2.38C108.423 1.91333 107.667 1.68 106.808 1.68C105.52 1.68 104.447 2.42667 103.588 3.92C102.748 5.41333 102.328 7.84 102.328 11.2C102.328 14.616 102.785 17.0613 103.7 18.536C104.633 19.992 105.903 20.72 107.508 20.72C108.385 20.72 109.216 20.4773 110 19.992C110.803 19.488 111.447 18.8253 111.932 18.004C112.436 17.1827 112.688 16.3147 112.688 15.4H113.388C113.388 16.464 113.099 17.4627 112.52 18.396C111.96 19.3107 111.185 20.048 110.196 20.608C109.225 21.1493 108.143 21.42 106.948 21.42ZM113.272 20.58L115.512 19.74L123.212 1.12H124.052L132.032 20.16L133.432 20.58V21H130.072C129.101 21 128.308 20.7853 127.692 20.356C127.076 19.908 126.619 19.3293 126.32 18.62L124.892 15.26H118.2L116.352 19.74L118.452 20.58V21H113.272V20.58ZM118.48 14.56H124.612L121.532 7.196L118.48 14.56ZM134.263 20.58L135.943 20.16V2.24L134.263 1.82V1.4H142.243V1.82L140.563 2.24V20.3H146.583C146.583 19.124 146.882 18.032 147.479 17.024C147.741 16.5947 148.049 16.24 148.403 15.96H149.243V21H134.263V20.58Z" fill="#FCFEFE"/>
</svg>
